<?xml version="1.0" encoding="UTF-8"?>
<svg width="30px" height="11px" viewBox="0 0 30 11" version="1.1" xmlns="http://www.w3.org/2000/svg" xmlns:xlink="http://www.w3.org/1999/xlink">
    <title>1A9614F8-80CB-4F79-98B0-41BAF71FEC37</title>
    <g id="Page-1" stroke="none" stroke-width="1" fill="none" fill-rule="evenodd">
        <g id="Desktop-žlutá-bloky-barevné" transform="translate(-949.000000, -515.000000)">
            <g id="Group-14" transform="translate(914.000000, 486.000000)">
                <g id="Arrow-line-Copy" transform="translate(50.223239, 34.500000) scale(-1, 1) translate(-50.223239, -34.500000) translate(36.000000, 30.000000)">
                    <path d="M23.6864017,-0.034611079 C23.7393111,-0.0140835817 23.7883396,0.0153017624 23.8313859,0.0522855165 L28.0090278,3.63933484 C28.088366,3.67724311 28.1578833,3.73600792 28.2085776,3.81165976 L28.3502793,3.9347499 C28.5110189,4.07285136 28.5672404,4.29728283 28.4905884,4.49485234 L28.4884513,4.5 C28.5562901,4.67449295 28.5243705,4.86357356 28.412686,5.00110826 L28.3502793,5.0652501 L28.2085776,5.18834024 C28.1578833,5.26399208 28.088366,5.32275689 28.0090278,5.36066516 L23.8313859,8.94771448 C23.7883396,8.98469824 23.7393111,9.01408358 23.6864017,9.03461108 C23.4289563,9.13449338 23.139285,9.00676324 23.0394027,8.74931783 L23.0394027,8.74931783 L22.8083411,8.15375943 C22.7316892,7.95618992 22.7879106,7.73175844 22.9486502,7.59365698 L22.9486502,7.59365698 L26.5494513,4.5 L22.9486502,1.40634302 C22.7879106,1.26824156 22.7316892,1.04381008 22.8083411,0.846240573 L23.0394027,0.250682173 C23.139285,-0.00676323546 23.4289563,-0.134493375 23.6864017,-0.034611079 Z" id="Combined-Shape" fill="#151A27"></path>
                    <line x1="0.946478294" y1="4.5" x2="26.1394259" y2="4.5" id="Line" stroke="#151A27" stroke-linecap="square"></line>
                </g>
            </g>
        </g>
    </g>
</svg>