<?xml version="1.0" encoding="UTF-8" standalone="no"?>
<!DOCTYPE svg PUBLIC "-//W3C//DTD SVG 1.1//EN" "http://www.w3.org/Graphics/SVG/1.1/DTD/svg11.dtd">
<svg width="100%" height="100%" viewBox="0 0 30 5" version="1.1" xmlns="http://www.w3.org/2000/svg" xmlns:xlink="http://www.w3.org/1999/xlink" xml:space="preserve" xmlns:serif="http://www.serif.com/" style="fill-rule:evenodd;clip-rule:evenodd;stroke-linejoin:round;stroke-miterlimit:2;">
    <g transform="matrix(1,0,0,1,-0.5,-0.623519)">
        <path id="Combined-Shape" d="M28.641,2.583L27.377,1.497C27.217,1.359 27.161,1.134 27.237,0.937L27.277,0.833C27.343,0.664 27.533,0.58 27.702,0.646C27.737,0.659 27.769,0.679 27.798,0.703L30.087,2.67C30.209,2.775 30.271,2.929 30.26,3.084C30.27,3.238 30.209,3.392 30.087,3.497L27.798,5.464C27.769,5.488 27.737,5.507 27.702,5.521C27.533,5.586 27.343,5.502 27.277,5.333L27.237,5.23C27.161,5.032 27.217,4.808 27.377,4.67L28.642,3.583L0.5,3.583L0.5,2.583L28.641,2.583Z" style="fill:rgb(21,26,39);"/>
    </g>
</svg>
