<svg height="1000" preserveaspectratio="xMidYMid meet" style="width: 100%; height: 100%; transform: translate3d(0px, 0px, 0px);" viewbox="0 0 1000 1000" width="1000" xmlns="http://www.w3.org/2000/svg" xmlns:xlink="http://www.w3.org/1999/xlink">
    <defs>
        <symbol id="icon-search" viewBox="0 0 32 32">
            <path d="M31.608 29.753l-9.069-9.139c1.734-2.135 2.801-4.937 2.801-7.939 0-7.005-5.668-12.675-12.67-12.675s-12.67 5.67-12.67 12.675c0 7.005 5.668 12.675 12.67 12.675 3.001 0 5.801-1.067 7.935-2.802l9.069 9.073c0.6 0.6 1.467 0.4 1.867 0 0.6-0.534 0.6-1.334 0.067-1.868zM2.667 12.675c0-5.537 4.468-10.007 10.002-10.007s10.002 4.47 10.002 10.007c0 5.537-4.468 10.007-10.002 10.007s-10.002-4.47-10.002-10.007z"></path>
        </symbol>
        <symbol id="icon-facebook" viewBox="0 0 18 32">
            <path d="M17.597 0.007l-4.386-0.007c-4.927 0-8.112 3.091-8.112 7.875v3.631h-4.41c-0.381 0-0.69 0.292-0.69 0.653v5.261c0 0.361 0.309 0.652 0.69 0.652h4.41v13.275c0 0.361 0.309 0.653 0.69 0.653h5.754c0.381 0 0.69-0.292 0.69-0.652v-13.275h5.156c0.381 0 0.69-0.292 0.69-0.652l0.002-5.261c0-0.173-0.073-0.339-0.202-0.461s-0.305-0.191-0.488-0.191h-5.158v-3.078c0-1.479 0.373-2.23 2.41-2.23l2.955-0.001c0.381 0 0.689-0.292 0.689-0.652v-4.885c0-0.36-0.308-0.652-0.689-0.652z"></path>
        </symbol>
        <symbol id="icon-instagram" viewBox="0 0 32 32">
            <path d="M27.253 0h-22.507c-2.618 0.007-4.739 2.128-4.747 4.747v22.507c0.007 2.618 2.128 4.739 4.747 4.747h22.507c2.618-0.007 4.739-2.128 4.747-4.747v-22.507c-0.007-2.618-2.128-4.739-4.747-4.747zM29.333 27.253c0 1.149-0.931 2.080-2.080 2.080h-22.507c-1.149 0-2.080-0.931-2.080-2.080v-22.507c0-1.149 0.931-2.080 2.080-2.080h22.507c1.149 0 2.080 0.931 2.080 2.080v22.507z"></path>
            <path d="M17 9c-4.418 0-8 3.582-8 8s3.582 8 8 8c4.418 0 8-3.582 8-8 0-2.122-0.843-4.157-2.343-5.657s-3.535-2.343-5.657-2.343zM17 22.333c-2.946 0-5.333-2.388-5.333-5.333s2.388-5.333 5.333-5.333c2.946 0 5.333 2.388 5.333 5.333 0 1.415-0.562 2.771-1.562 3.771s-2.357 1.562-3.771 1.562z"></path>
            <path d="M28 6.5c0 1.381-1.119 2.5-2.5 2.5s-2.5-1.119-2.5-2.5c0-1.381 1.119-2.5 2.5-2.5s2.5 1.119 2.5 2.5z"></path>
        </symbol>
        <symbol id="icon-youtube" viewBox="0 0 46 32">
            <path d="M16 7.901v13.912c0 0.78 0.844 1.283 1.553 0.928l13.867-6.957c0.772-0.388 0.772-1.467 0-1.854l-13.867-6.957c-0.71-0.356-1.553 0.148-1.553 0.928zM18.133 9.607l10.465 5.249-10.465 5.25v-10.5z"></path>
            <path d="M37.311 0h-28.908c-4.641 0-8.403 3.731-8.403 8.333v15.333c0 4.602 3.762 8.333 8.403 8.333h28.908c4.641 0 8.403-3.731 8.403-8.333v-15.333c0-4.602-3.762-8.333-8.403-8.333zM8.403 2h28.908c3.527 0 6.387 2.836 6.387 6.333v15.333c0 3.498-2.859 6.333-6.387 6.333h-28.908c-3.527 0-6.387-2.836-6.387-6.333v-15.333c0-3.498 2.859-6.333 6.387-6.333z"></path>
        </symbol>
        <symbol id="icon-arrow-right" viewBox="0 0 165 32">
            <path d="M147.746 3.445c0.185 0.072 0.357 0.175 0.508 0.304l12.21 10.49c0.65 0.559 0.98 1.383 0.923 2.208 0.056 0.824-0.274 1.645-0.923 2.203v0l-12.21 10.49c-0.151 0.13-0.323 0.233-0.508 0.304-0.902 0.35-1.917-0.098-2.267-1v0l-0.214-0.551c-0.409-1.054-0.109-2.251 0.748-2.987v0l9.844-8.46-9.844-8.463c-0.857-0.737-1.157-1.934-0.748-2.987l0.214-0.551c0.35-0.902 1.365-1.35 2.267-1z"></path>
            <path stroke-linejoin="miter" stroke-linecap="square" stroke-miterlimit="4" stroke-width="5.3333" d="M5.333 16.444h149.333"></path>
        </symbol>
        <symbol id="icon-geryla_logo" viewBox="0 0 48 32">
            <path d="M38.386 16.304h7.010v10.12c-1.414 0.98-3.054 1.732-4.924 2.256s-3.704 0.786-5.504 0.786c-2.554 0-4.844-0.53-6.872-1.59-1.973-1.008-3.625-2.547-4.77-4.444-1.15-1.904-1.726-4.062-1.726-6.48 0-2.416 0.576-4.574 1.726-6.478 1.152-1.904 2.76-3.384 4.82-4.444 2.064-1.060 4.394-1.59 6.992-1.59 2.348 0 4.452 0.394 6.308 1.18 1.858 0.786 3.402 1.932 4.634 3.436l-5.164 4.544c-1.504-1.754-3.292-2.632-5.366-2.632-1.78 0-3.192 0.536-4.24 1.608-1.050 1.070-1.572 2.53-1.572 4.376 0 1.8 0.518 3.248 1.554 4.34 1.038 1.096 2.422 1.642 4.154 1.642 1.026 0 2.006-0.194 2.94-0.58v-6.050z"></path>
            <path d="M12.284 0h7.444l-12.284 30.666h-7.444z"></path>
        </symbol>
        <symbol id="icon-email" viewBox="0 0 43 32">
            <path d="M43.2 3.938c0-2.175-1.776-3.938-3.968-3.938h-35.264c-2.191 0-3.968 1.763-3.968 3.938v24.123c0 2.175 1.776 3.938 3.968 3.938h35.264c2.191 0 3.968-1.763 3.968-3.938v-24.123zM3.968 1.969h35.264c0.105 0.002 0.209 0.012 0.312 0.030l-16.511 17.127c-0.374 0.387-0.891 0.605-1.431 0.605s-1.057-0.219-1.431-0.605l-16.516-17.127c0.103-0.018 0.208-0.028 0.312-0.030zM1.984 3.938c0.003-0.236 0.048-0.469 0.134-0.689l10.416 10.806-10.55 12.869v-22.986zM39.232 30.031h-35.264c-0.55-0.002-1.074-0.23-1.448-0.63l11.398-13.898 4.821 5.002c0.748 0.775 1.783 1.213 2.864 1.213s2.116-0.438 2.864-1.213l4.503-4.672 11.705 13.583c-0.377 0.39-0.899 0.609-1.443 0.606v0.010zM41.216 27.013l-10.872-12.623 10.738-11.141c0.086 0.22 0.131 0.453 0.134 0.689v23.074z"></path>
        </symbol>
        <symbol id="icon-phone" viewBox="0 0 17 32">
            <path d="M15.601 0.1c-0.211-0.066-0.431-0.1-0.652-0.1h-12.756c-0.582 0-1.14 0.233-1.551 0.649s-0.643 0.979-0.643 1.566v0 27.571c0.001 1.223 0.983 2.214 2.194 2.215h12.755c1.211-0.001 2.193-0.992 2.194-2.215v0-27.57c-0.001-0.97-0.625-1.826-1.541-2.116zM16.454 27.308h-15.765v-22.616h15.764l0.001 22.616zM14.949 0.697c0.831 0.001 1.504 0.681 1.505 1.519v1.781h-15.764v-1.781c0.001-0.839 0.674-1.518 1.505-1.519h12.755zM2.194 31.304c-0.831-0.001-1.504-0.681-1.505-1.519v-1.779h15.764v1.779c-0.001 0.839-0.674 1.518-1.505 1.519h-12.755z"></path>
            <path d="M8 28.571c-0.631 0-1.143 0.512-1.143 1.143s0.512 1.143 1.143 1.143c0.631 0 1.143-0.512 1.143-1.143s-0.512-1.142-1.143-1.143v0zM8 30.264c-0.304 0-0.55-0.246-0.55-0.55s0.246-0.55 0.55-0.55c0.304 0 0.55 0.246 0.55 0.55s-0.246 0.55-0.55 0.55z"></path>
            <path d="M4.899 2.286h5.060c0.181 0 0.327-0.256 0.327-0.571s-0.146-0.571-0.327-0.571h-5.060c-0.181 0-0.327 0.256-0.327 0.571s0.146 0.571 0.327 0.571z"></path>
            <path d="M12 2.286c0.075-0.001 0.148-0.016 0.217-0.046 0.069-0.031 0.133-0.074 0.189-0.126 0.106-0.108 0.166-0.254 0.166-0.405-0.003-0.149-0.062-0.292-0.166-0.4-0.055-0.052-0.119-0.095-0.189-0.126-0.214-0.085-0.458-0.035-0.623 0.126-0.052 0.052-0.092 0.115-0.12 0.183-0.032 0.068-0.048 0.142-0.046 0.217 0 0.152 0.059 0.297 0.166 0.405s0.253 0.171 0.406 0.171v0z"></path>
        </symbol>
        <symbol id="icon-ubytovani" viewBox="0 0 31 32">
            <path d="M27.577 24.37c-0.146 0-0.284 0.061-0.383 0.168s-0.148 0.25-0.136 0.395l0.52 6.244c0.023 0.27 0.248 0.477 0.519 0.477h2.081c0.271 0 0.496-0.207 0.519-0.477l0.52-6.244c0.012-0.145-0.037-0.288-0.136-0.395s-0.237-0.168-0.383-0.168h-1.041v-0.305l1.409-1.409-0.736-0.736-0.673 0.673v-2.171l1.409-1.409-0.736-0.736-0.673 0.673v-0.949c0.61-0.281 1.041-1.037 1.041-1.958 0-1.167-0.686-2.081-1.561-2.081s-1.561 0.914-1.561 2.081c0 0.921 0.43 1.677 1.041 1.958v3.030l-0.673-0.673-0.736 0.736 1.409 1.409v1.866h-1.041zM29.138 15.004c0.212 0 0.52 0.405 0.52 1.041s-0.308 1.041-0.52 1.041c-0.212 0-0.52-0.405-0.52-1.041s0.308-1.041 0.52-1.041zM29.7 30.614h-1.124l-0.433-5.203h1.991l-0.433 5.203z"></path>
            <path d="M5.723 5.638h-4.163c-0.254 0-0.471 0.184-0.513 0.434l-1.041 6.244c-0.025 0.151 0.017 0.305 0.116 0.422s0.244 0.184 0.397 0.184h2.602v17.691h-2.081v1.041h5.203v-1.041h-2.081v-17.691h2.602c0.153 0 0.298-0.067 0.397-0.184s0.141-0.271 0.116-0.422l-1.041-6.244c-0.042-0.25-0.259-0.434-0.513-0.434zM1.135 11.882l0.867-5.203h3.281l0.867 5.203h-5.016z"></path>
            <path d="M8.325 21.537c-0.307-0.179-0.66-0.289-1.041-0.289-1.148 0-2.081 0.933-2.081 2.081v5.724c0 0.287 0.233 0.52 0.52 0.52h2.602v1.561c0 0.287 0.233 0.52 0.52 0.52h2.081c0.287 0 0.52-0.233 0.52-0.52v-1.561h8.846v1.561c0 0.287 0.233 0.52 0.52 0.52h2.081c0.287 0 0.52-0.233 0.52-0.52v-1.561h2.081c0.287 0 0.52-0.233 0.52-0.52v-5.724c0-1.148-0.933-2.081-2.081-2.081-0.381 0-0.733 0.11-1.041 0.289v-0.289c0-1.148-0.933-2.081-2.081-2.081h-10.406c-1.148 0-2.081 0.933-2.081 2.081v0.289zM10.406 30.614h-1.041v-1.041h1.041v1.041zM22.374 30.614h-1.041v-1.041h1.041v1.041zM23.935 22.288c0.574 0 1.041 0.467 1.041 1.041v5.203h-18.732v-5.203c0-0.574 0.467-1.041 1.041-1.041s1.041 0.467 1.041 1.041v2.602c0 0.287 0.233 0.52 0.52 0.52h13.528c0.287 0 0.52-0.233 0.52-0.52v-2.602c0-0.574 0.467-1.041 1.041-1.041zM21.853 21.248v4.163h-5.724v-5.203h4.683c0.574 0 1.041 0.467 1.041 1.041zM9.366 21.248c0-0.574 0.467-1.041 1.041-1.041h4.683v5.203h-5.724v-4.163z"></path>
            <path d="M22.374 12.402c0.287 0 0.52-0.233 0.52-0.52v-7.285c0-0.287-0.233-0.52-0.52-0.52h-0.889l-5.596-3.561c-0.171-0.108-0.388-0.108-0.559 0l-5.596 3.561h-0.889c-0.287 0-0.52 0.233-0.52 0.52v7.285c0 0.287 0.233 0.52 0.52 0.52h13.528zM15.61 1.572l3.937 2.505h-7.874l3.937-2.505zM9.366 5.118h12.488v6.244h-12.488v-6.244z"></path>
            <path d="M27.577 4.597c-2.008 0-3.642 1.634-3.642 3.642s1.634 3.642 3.642 3.642c2.008 0 3.642-1.634 3.642-3.642s-1.634-3.642-3.642-3.642zM27.577 10.841c-1.435 0-2.602-1.167-2.602-2.602s1.167-2.602 2.602-2.602c1.435 0 2.602 1.167 2.602 2.602s-1.167 2.602-2.602 2.602z"></path>
            <path d="M27.577 8.024l-0.673-0.673-0.736 0.736 1.041 1.041c0.101 0.101 0.235 0.152 0.368 0.152s0.266-0.051 0.368-0.152l1.561-1.561-0.736-0.736-1.193 1.193z"></path>
            <path d="M18.090 6.346c-0.094-0.112-0.23-0.18-0.376-0.187-0.144-0.004-0.288 0.048-0.391 0.152l-2.651 2.651-1.218-2.030c-0.087-0.146-0.241-0.24-0.412-0.251-0.168-0.009-0.335 0.061-0.441 0.194l-2.081 2.602c-0.125 0.156-0.149 0.37-0.063 0.55s0.27 0.295 0.469 0.295h3.64c0.001 0 0.001 0 0.002 0s0.002 0 0.002 0h5.721c0.202 0 0.386-0.117 0.471-0.3s0.058-0.399-0.072-0.554l-2.602-3.122zM12.009 9.28l0.938-1.172 0.703 1.172h-1.641zM15.825 9.28l1.831-1.831 1.526 1.831h-3.357z"></path>
        </symbol>
        <symbol id="icon-prohlidka" viewBox="0 0 30 32">
            <path d="M20.907 16.751h-11.3c1.128 1.947 3.236 3.258 5.65 3.258s4.522-1.31 5.65-3.258zM22.149 16.72c-0.783 1.666-2.154 3.002-3.846 3.741 4.521 1.378 7.825 5.747 7.825 10.923h-1.087c0-5.694-4.392-10.29-9.784-10.29s-9.784 4.596-9.784 10.29h-1.087c0-5.176 3.304-9.545 7.825-10.923-1.692-0.739-3.063-2.075-3.846-3.741-1.025-0.175-1.805-1.067-1.805-2.14v-3.258c0-1.199 0.973-2.172 2.174-2.172h0.277c1.375-1.969 3.66-3.258 6.245-3.258s4.87 1.288 6.245 3.258h0.277c1.201 0 2.174 0.972 2.174 2.172v3.258c0 1.074-0.78 1.965-1.805 2.14h-0zM10.396 9.15h9.723c-1.194-1.333-2.93-2.172-4.862-2.172s-3.667 0.839-4.862 2.172zM8.735 10.236c-0.6 0-1.087 0.486-1.087 1.086v3.258c0 0.6 0.487 1.086 1.087 1.086h13.045c0.6 0 1.087-0.486 1.087-1.086v-3.258c0-0.6-0.487-1.086-1.087-1.086h-13.045zM9.822 12.408v2.172h-1.087v-3.258h13.045v1.086h-11.958zM28.186 18.488l-0.971-0.97 0.769-0.768 2.306 2.303-2.306 2.303-0.769-0.768 1.017-1.016h-4.278v-1.086h4.232zM0.039 16.751h5.435v5.429h-5.435v-5.429zM1.126 17.837v3.258h3.261v-3.258h-3.261zM3.843 0.424l3.843 3.839-3.843 3.839-3.843-3.839 3.843-3.839zM3.843 1.96l-2.306 2.303 2.306 2.303 2.306-2.303-2.306-2.303zM27.215 6.978c-1.801 0-3.261-1.458-3.261-3.258s1.46-3.258 3.261-3.258c1.801 0 3.261 1.458 3.261 3.258s-1.46 3.258-3.261 3.258zM27.215 5.892c1.201 0 2.174-0.972 2.174-2.172s-0.973-2.172-2.174-2.172c-1.201 0-2.174 0.972-2.174 2.172s0.973 2.172 2.174 2.172z"></path>
        </symbol>
        <symbol id="icon-fotogalerie" viewBox="0 0 31 32">
            <path d="M10.873 26.272h-2.907c-0.534 0-0.969 0.483-0.969 1.077v1.077c0 0.594 0.435 1.077 0.969 1.077h2.907c0.534 0 0.969-0.483 0.969-1.077v-1.077c0-0.594-0.435-1.077-0.969-1.077zM7.966 28.425v-1.077h2.907l0.001 1.077h-2.907z"></path>
            <path d="M4.306 26.272h-1.077c-0.594 0-1.077 0.483-1.077 1.077v1.077c0 0.594 0.483 1.077 1.077 1.077h1.077c0.594 0 1.077-0.483 1.077-1.077v-1.077c0-0.594-0.483-1.077-1.077-1.077zM3.23 28.425v-1.077h1.077l0.001 1.077h-1.077z"></path>
            <path d="M16.148 26.272h-1.077c-0.594 0-1.077 0.483-1.077 1.077v1.077c0 0.594 0.483 1.077 1.077 1.077h1.077c0.594 0 1.077-0.483 1.077-1.077v-1.077c0-0.594-0.483-1.077-1.077-1.077zM15.072 28.425v-1.077h1.077l0.001 1.077h-1.077z"></path>
            <path d="M10.469 3.126c0 0.431-0.349 0.78-0.78 0.78s-0.78-0.349-0.78-0.78c0-0.431 0.349-0.78 0.78-0.78s0.78 0.349 0.78 0.78z"></path>
            <path d="M17.467 3.126c0 0.431-0.349 0.78-0.78 0.78s-0.78-0.349-0.78-0.78c0-0.431 0.349-0.78 0.78-0.78s0.78 0.349 0.78 0.78z"></path>
            <path d="M31.22 6.477h-12.085v-3.525c0-1.388-1.129-2.518-2.518-2.518h-14.099c-1.388 0-2.518 1.129-2.518 2.518v26.184c0 1.388 1.129 2.518 2.518 2.518h14.099c1.388 0 2.518-1.129 2.518-2.518v-5.539h4.028v-2.014h8.057v-15.106zM30.212 19.417l-2.407-3.611c-0.531-0.796-1.419-1.271-2.376-1.271s-1.845 0.475-2.376 1.271l-0.259 0.389-1.022-2.045c-0.503-1.005-1.514-1.629-2.637-1.629s-2.134 0.624-2.637 1.629l-2.399 4.798v-11.463h16.113v11.932zM13.092 16.836c-0.481-0.183-0.99-0.288-1.511-0.288-1.43 0-2.757 0.71-3.55 1.9l-1.988 2.983v-11.932h7.050v7.337zM8.869 19.007c0.606-0.909 1.62-1.452 2.713-1.452 0.53 0 1.044 0.135 1.511 0.38v3.648h2.92l0.671 1.007h-10.203l2.389-3.584zM14.41 20.576l2.988-5.977c0.331-0.662 0.995-1.073 1.736-1.073s1.405 0.411 1.736 1.073l2.989 5.977h-9.448zM23.312 17.231l0.578-0.867c0.344-0.516 0.919-0.823 1.538-0.823s1.194 0.308 1.538 0.823l2.808 4.212h-4.79l-1.673-3.345zM18.127 2.953v1.511h-6.559c0.32-0.422 0.517-0.942 0.517-1.511v-1.511h4.532c0.833 0 1.511 0.678 1.511 1.511zM8.057 2.953v-1.511h3.021v1.511c0 0.833-0.678 1.511-1.511 1.511s-1.511-0.678-1.511-1.511zM2.518 1.442h4.532v1.511c0 0.569 0.197 1.089 0.517 1.511h-6.559v-1.511c0-0.833 0.678-1.511 1.511-1.511zM16.617 30.647h-14.099c-0.833 0-1.511-0.678-1.511-1.511v-3.525h17.12v3.525c0 0.833-0.678 1.511-1.511 1.511zM18.127 24.605h-17.12v-19.135h17.12v1.007h-5.035v2.014h-8.057v15.106h13.092v1.007zM22.156 22.591h-4.262l-0.671-1.007h4.934v1.007z"></path>
            <path d="M9.42 15.506c1.336 0 2.422-1.087 2.422-2.422s-1.087-2.422-2.422-2.422c-1.336 0-2.422 1.087-2.422 2.422s1.087 2.422 2.422 2.422zM9.42 11.631c0.801 0 1.453 0.652 1.453 1.453s-0.652 1.453-1.453 1.453c-0.801 0-1.453-0.652-1.453-1.453s0.652-1.453 1.453-1.453z"></path>
            <path d="M16.686 11.738c0.89 0 1.615-0.725 1.615-1.615s-0.724-1.615-1.615-1.615c-0.89 0-1.615 0.725-1.615 1.615s0.725 1.615 1.615 1.615zM16.686 9.585c0.297 0 0.538 0.242 0.538 0.538s-0.241 0.538-0.538 0.538c-0.297 0-0.538-0.242-0.538-0.538s0.241-0.538 0.538-0.538z"></path>
            <path d="M26.913 10.662h-0.538v1.077h2.153v-1.077h-0.538c0-0.594 0.483-1.077 1.077-1.077v-1.077c-0.646 0-1.22 0.292-1.615 0.744-0.395-0.452-0.968-0.744-1.615-0.744v1.077c0.594 0 1.077 0.483 1.077 1.077z"></path>
        </symbol>
        <symbol id="icon-jidelna" viewBox="0 0 35 32">
            <path d="M17.548 2.633c3.234-0.002 6.355 1.196 8.764 3.364l0.762-0.856c-5.424-4.875-13.628-4.875-19.052 0l0.762 0.856c2.409-2.168 5.53-3.366 8.764-3.364v0z"></path>
            <path d="M17.297 29.437c-3.795-0.002-7.406-1.6-9.917-4.388l-0.862 0.746c2.728 3.032 6.655 4.769 10.779 4.769s8.051-1.737 10.779-4.769l-0.862-0.746c-2.511 2.789-6.122 4.387-9.917 4.388v0z"></path>
            <path d="M26.779 14.379c0.091 0.544 0.137 1.094 0.137 1.646 0.001 1.003-0.152 2.001-0.453 2.958-0.212-0.267-0.48-0.484-0.785-0.636-0.778-0.393-1.601-0.69-2.45-0.884 2.183-1.943 2.583-5.205 0.933-7.617s-4.835-3.222-7.437-1.891c-0.658-0.569-1.556-0.774-2.395-0.545s-1.51 0.86-1.788 1.685c-0.757-0.124-1.531 0.090-2.116 0.586s-0.923 1.224-0.924 1.991c-0 0.344 0.068 0.684 0.2 1.002-0.034 0.018-0.069 0.036-0.104 0.054-0.326 0.169-0.695 0.361-0.957 0.721-0.26 0.357-0.329 0.767-0.39 1.128-0.022 0.155-0.055 0.308-0.098 0.459-0.051 0.14-0.112 0.275-0.183 0.406-0.166 0.331-0.355 0.706-0.355 1.164s0.189 0.833 0.355 1.164c0.070 0.131 0.131 0.267 0.183 0.406 0.043 0.15 0.076 0.304 0.098 0.458 0.061 0.361 0.13 0.771 0.39 1.128 0.262 0.36 0.631 0.552 0.957 0.721 0.139 0.068 0.273 0.145 0.401 0.231 0.12 0.094 0.232 0.196 0.338 0.306 0.262 0.259 0.56 0.554 0.989 0.693 0.414 0.134 0.822 0.074 1.182 0.021 0.158-0.028 0.318-0.044 0.478-0.050 0.16 0.005 0.32 0.022 0.478 0.050 0.034 0.005 0.068 0.010 0.103 0.015-0.108 0.176-0.187 0.369-0.234 0.57-0.11 0.433-0.017 0.892 0.253 1.248 0.543 0.703 1.586 0.89 2.485 0.443 2.078-1.046 4.529-1.045 6.606 0.001 0.033 0.016 0.066 0.032 0.1 0.047-1.67 1.196-3.673 1.838-5.726 1.835-5.442 0-9.869-4.427-9.869-9.869s4.427-9.869 9.869-9.869c2.163-0.007 4.267 0.703 5.983 2.020 1.681 1.286 2.907 3.076 3.5 5.108l1.116-0.322c-0.663-2.271-2.033-4.271-3.911-5.708-1.918-1.472-4.27-2.266-6.688-2.258-6.082 0-11.030 4.948-11.030 11.030s4.948 11.030 11.030 11.030c2.837 0.002 5.565-1.093 7.613-3.056 0.191-0.11 0.359-0.256 0.494-0.43 0.058-0.074 0.108-0.154 0.149-0.238 1.789-2.013 2.776-4.613 2.774-7.307 0-0.616-0.051-1.23-0.152-1.838l-1.145 0.192zM25.711 20.020c0.028 0.096 0.014 0.199-0.039 0.283-0.198 0.257-0.657 0.307-1.043 0.115-1.813-0.912-3.892-1.147-5.863-0.661l-0.011 0.001v0.002c-0.614 0.152-1.209 0.372-1.773 0.658-0.387 0.193-0.846 0.143-1.046-0.116-0.052-0.084-0.066-0.187-0.038-0.282 0.044-0.194 0.213-0.463 0.557-0.637 2.736-1.377 5.962-1.377 8.698 0 0.344 0.174 0.513 0.443 0.557 0.637zM24.013 13.122c0.003 1.712-0.938 3.287-2.449 4.094-1.158-0.081-2.322 0.024-3.448 0.311 0.147-0.286 0.227-0.601 0.236-0.921 0-0.458-0.189-0.833-0.355-1.164-0.070-0.131-0.131-0.267-0.183-0.406-0.025-0.080-0.045-0.162-0.060-0.245 0.794 0.767 2.018 0.869 2.927 0.243s1.253-1.804 0.822-2.82c-0.431-1.016-1.518-1.587-2.6-1.367s-1.858 1.172-1.858 2.276c0 0.009 0 0.018 0 0.027-0.209-0.166-0.436-0.307-0.676-0.422-0.139-0.068-0.273-0.145-0.401-0.231-0.037-0.027-0.075-0.059-0.114-0.093 0.688-0.234 1.248-0.744 1.545-1.407s0.303-1.421 0.019-2.090c0.611-0.284 1.277-0.43 1.95-0.428 2.564 0.003 4.641 2.081 4.644 4.644v0zM18.208 13.122c0-0.641 0.52-1.161 1.161-1.161s1.161 0.52 1.161 1.161c0 0.641-0.52 1.161-1.161 1.161s-1.16-0.52-1.161-1.161v0zM15.015 8.477c0.802 0 1.451 0.65 1.451 1.451s-0.65 1.451-1.451 1.451c-0.802 0-1.451-0.65-1.451-1.451s0.65-1.45 1.451-1.451zM12.112 10.219c0.104-0 0.208 0.011 0.31 0.033 0.092 0.73 0.486 1.387 1.087 1.811-0.203 0.722-0.923 1.171-1.661 1.035s-1.25-0.812-1.182-1.559c0.068-0.747 0.695-1.319 1.445-1.319zM12.983 20.523c-0.217 0.005-0.434 0.025-0.648 0.062-0.256 0.038-0.498 0.074-0.653 0.023-0.167-0.054-0.344-0.229-0.531-0.414-0.146-0.151-0.303-0.291-0.471-0.419-0.175-0.121-0.358-0.229-0.549-0.323-0.233-0.121-0.452-0.235-0.554-0.374-0.099-0.137-0.14-0.38-0.184-0.639-0.031-0.211-0.077-0.42-0.138-0.624-0.068-0.196-0.152-0.386-0.25-0.569-0.119-0.236-0.232-0.459-0.232-0.642s0.112-0.406 0.231-0.642c0.098-0.183 0.181-0.373 0.25-0.569 0.062-0.204 0.108-0.413 0.138-0.624 0.044-0.258 0.085-0.502 0.184-0.639 0.102-0.139 0.321-0.253 0.554-0.374 0.082-0.043 0.165-0.086 0.249-0.133 0.624 0.554 1.474 0.776 2.289 0.599s1.496-0.734 1.833-1.497c0.11 0.090 0.215 0.187 0.314 0.289 0.146 0.151 0.303 0.291 0.471 0.419 0.175 0.121 0.358 0.229 0.549 0.323 0.233 0.121 0.452 0.235 0.554 0.374 0.099 0.137 0.14 0.38 0.184 0.639 0.031 0.211 0.077 0.42 0.138 0.624 0.068 0.196 0.152 0.386 0.25 0.569 0.119 0.237 0.231 0.46 0.231 0.642s-0.112 0.406-0.231 0.642c-0.098 0.183-0.181 0.373-0.25 0.569-0.020 0.062-0.038 0.126-0.056 0.197-0.244 0.102-0.485 0.212-0.723 0.332-0.598 0.302-1.034 0.832-1.166 1.418-0.039 0.168-0.051 0.342-0.035 0.514-0.156 0.152-0.305 0.285-0.447 0.331-0.155 0.050-0.397 0.015-0.653-0.023-0.214-0.037-0.431-0.058-0.648-0.062v0zM23.194 22.974c-2.405-1.211-5.242-1.212-7.648-0.002-0.387 0.193-0.846 0.143-1.046-0.116-0.052-0.084-0.066-0.187-0.038-0.282 0.044-0.194 0.213-0.463 0.557-0.637 0.257-0.13 0.522-0.249 0.791-0.356 0.558 0.189 1.169 0.144 1.693-0.126 0.458-0.232 0.94-0.414 1.437-0.544 0.325-0.014 0.651-0.012 0.976 0.006 1.324 0.073 2.619 0.421 3.802 1.020 0.344 0.174 0.513 0.443 0.557 0.637 0.012 0.049 0.015 0.1 0.011 0.151-0.098 0.106-0.199 0.21-0.301 0.312-0.261 0.087-0.546 0.064-0.79-0.063v0z"></path>
            <path d="M33.425 0.482v5.756h-1.755v-5.756h-1.17v5.756h-1.755v-5.756h-1.17v9.498c0.001 0.981 0.72 1.819 1.702 1.986l-0.529 17.167c-0.003 0.043-0.004 0.087-0.004 0.131 0 1.272 1.048 2.303 2.34 2.303s2.34-1.031 2.34-2.303c0-0.044-0.001-0.088-0.004-0.131l-0.12-3.916-1.169 0.035 0.121 3.924c0 0.006 0 0.012 0.001 0.017 0.001 0.023 0.002 0.047 0.002 0.071 0 0.636-0.524 1.151-1.17 1.151s-1.17-0.515-1.17-1.151c0-0.024 0.001-0.047 0.002-0.071 0-0.006 0.001-0.012 0.001-0.017l0.529-17.181h1.276l0.373 12.106 1.169-0.035-0.373-12.1c0.983-0.167 1.701-1.005 1.703-1.986v-9.498h-1.17zM33.425 9.98c-0.001 0.477-0.393 0.863-0.877 0.863h-2.925c-0.484-0.001-0.877-0.387-0.877-0.863v-2.59h4.679v2.59z"></path>
            <path d="M5.174 11.329c1.107-0.958 1.845-2.857 1.845-5.090 0-3.228-1.542-5.756-3.51-5.756s-3.51 2.529-3.51 5.756c0 2.125 0.668 3.947 1.686 4.944l-0.128 4.249 1.142 0.035 0.108-3.582c0.402 0.13 0.831 0.145 1.241 0.045l0.519 17.246c0 0.006 0 0.012 0.001 0.017 0.001 0.023 0.002 0.047 0.002 0.071 0 0.636-0.512 1.151-1.143 1.151s-1.143-0.515-1.143-1.151c0-0.024 0.001-0.047 0.002-0.071 0-0.006 0.001-0.012 0.001-0.017l0.378-12.559-1.142-0.035-0.378 12.551c-0.002 0.043-0.004 0.087-0.004 0.131 0 1.272 1.023 2.303 2.285 2.303s2.285-1.031 2.285-2.303c0-0.044-0.001-0.088-0.004-0.131l-0.535-17.805zM1.143 6.238c0-2.755 1.224-4.605 2.367-4.605s2.367 1.851 2.367 4.605c0 2.755-1.224 4.605-2.367 4.605s-2.367-1.851-2.367-4.605z"></path>
            <path d="M10.391 16.994l0.576-1.727 1.092 0.364-0.576 1.727z"></path>
            <path d="M12.482 18.356l1.727-0.576 0.364 1.092-1.727 0.576z"></path>
            <path d="M13.496 15.928l0.639-0.958 1.727 1.151-0.639 0.958z"></path>
        </symbol>
        <symbol id="icon-autoskola" viewBox="0 0 68 32">
            <path d="M66.133 20.463v-7.663c0-2.353-1.914-4.267-4.267-4.267h-4.814l-4.917-6.275c-0.837-1.291-2.603-2.258-4.135-2.258h-20.267c-1.553 0-3.345 0.993-4.169 2.31l-3.889 6.223h-5.809c-3.711 0-7.127 1.71-9.371 4.692-1.067 1.417-1.781 2.996-2.127 4.695 0 0 0 0 0 0v0c-0.157 0.771-0.236 1.561-0.236 2.346v0.196c-1.239 0.443-2.133 1.615-2.133 3.004 0 1.764 1.436 3.2 3.2 3.2h7.563c0.511 3.022 3.138 5.333 6.304 5.333s5.793-2.311 6.304-5.333h22.592c0.511 3.022 3.138 5.333 6.304 5.333s5.793-2.311 6.304-5.333h6.496c1.764 0 3.2-1.436 3.2-3.2 0-1.389-0.894-2.561-2.133-3.004zM64 17.067h-3.2c-0.588 0-1.067-0.479-1.067-1.067s0.479-1.067 1.067-1.067h3.2v2.133zM51.835 5.333l2.508 3.2h-15.125l1.92-3.2h10.698zM24.191 5.333h10.192l-1.92 3.2h-10.271l1.999-3.2zM33.067 10.667c0.374 0 0.722-0.196 0.914-0.517l3.2-5.333c0.198-0.33 0.204-0.74 0.014-1.074-0.189-0.335-0.544-0.542-0.928-0.542h-10.711c0.511-0.582 1.468-1.067 2.178-1.067h20.267c0.711 0 1.668 0.484 2.178 1.067h-9.645c-0.374 0-0.722 0.196-0.914 0.517l-3.2 5.333c-0.198 0.33-0.204 0.74-0.014 1.074 0.189 0.335 0.544 0.542 0.928 0.542h24.533c1.177 0 2.133 0.957 2.133 2.133h-3.2c-1.764 0-3.2 1.436-3.2 3.2s1.436 3.2 3.2 3.2h3.2v1.067h-1.067c-1.764 0-3.2 1.436-3.2 3.2v1.067h-1.163c-0.511-3.022-3.138-5.333-6.304-5.333s-5.793 2.311-6.304 5.333h-22.585c-0.51-3.023-3.146-5.333-6.311-5.333s-5.802 2.31-6.311 5.333h-1.155v-1.067c0-1.764-1.436-3.2-3.2-3.2h-2.133c0-0.355 0.025-0.711 0.064-1.067h3.136c1.764 0 3.2-1.436 3.2-3.2 0-1.649-1.258-2.994-2.862-3.166 1.694-1.394 3.811-2.167 6.062-2.167h19.2zM7.467 14.933c0.588 0 1.067 0.479 1.067 1.067s-0.479 1.067-1.067 1.067h-2.652c0.267-0.747 0.627-1.46 1.082-2.133h1.57zM2.133 23.467c0-0.588 0.479-1.067 1.067-1.067h3.2c0.588 0 1.067 0.479 1.067 1.067v1.067h-4.267c-0.588 0-1.067-0.479-1.067-1.067zM17.067 29.867c-2.353 0-4.267-1.914-4.267-4.267s1.914-4.267 4.267-4.267c2.353 0 4.267 1.914 4.267 4.267s-1.914 4.267-4.267 4.267zM52.267 29.867c-2.353 0-4.267-1.914-4.267-4.267s1.914-4.267 4.267-4.267c2.353 0 4.267 1.914 4.267 4.267s-1.914 4.267-4.267 4.267zM65.067 24.533h-3.2v-1.067c0-0.588 0.479-1.067 1.067-1.067h2.133c0.588 0 1.067 0.479 1.067 1.067s-0.479 1.067-1.067 1.067z"></path>
            <path d="M19.2 24.533c-0.589 0-1.067 0.478-1.067 1.067 0 0.588-0.479 1.067-1.067 1.067-0.589 0-1.067 0.478-1.067 1.067s0.478 1.067 1.067 1.067c1.764 0 3.2-1.436 3.2-3.2 0-0.589-0.478-1.067-1.067-1.067z"></path>
            <path d="M54.4 24.533c-0.589 0-1.067 0.478-1.067 1.067 0 0.588-0.479 1.067-1.067 1.067-0.589 0-1.067 0.478-1.067 1.067s0.478 1.067 1.067 1.067c1.764 0 3.2-1.436 3.2-3.2 0-0.589-0.478-1.067-1.067-1.067z"></path>
            <path d="M30.933 22.4h12.734c0.404 0 0.774-0.228 0.955-0.591 1.458-2.925 4.387-4.742 7.645-4.742 0.589 0 1.067-0.478 1.067-1.067s-0.478-1.067-1.067-1.067c-3.847 0-7.328 2.027-9.236 5.333h-12.097c-0.589 0-1.067 0.478-1.067 1.067s0.478 1.067 1.067 1.067z"></path>
            <path d="M26.667 22.4c0.277 0 0.555-0.117 0.757-0.309 0.192-0.203 0.309-0.48 0.309-0.757 0-0.288-0.117-0.555-0.309-0.757-0.405-0.395-1.109-0.395-1.515 0-0.192 0.203-0.309 0.469-0.309 0.757 0 0.277 0.117 0.555 0.309 0.757 0.203 0.192 0.48 0.309 0.757 0.309z"></path>
        </symbol>
        <symbol id="icon-programy" viewBox="0 0 36 32">
            <path d="M18.005 22.583c-1.897-1.222-3.794-2.444-5.691-3.666-3.027-1.945-6.047-3.899-9.074-5.844-0.697-0.448-1.386-0.895-2.083-1.343 0 0.499 0 0.99 0 1.489 1.905-1.256 3.802-2.513 5.706-3.77 3.020-1.988 6.039-3.985 9.059-5.973 0.697-0.456 1.386-0.912 2.083-1.377-0.263 0-0.519 0-0.782 0 1.936 1.239 3.879 2.479 5.815 3.718 3.082 1.971 6.171 3.95 9.253 5.921 0.705 0.448 1.401 0.895 2.106 1.351 0-0.499 0-0.99 0-1.489-1.936 1.239-3.879 2.479-5.815 3.718-3.082 1.971-6.171 3.95-9.253 5.921-0.705 0.448-1.401 0.895-2.106 1.351-0.867 0.551-0.085 2.040 0.782 1.489 1.936-1.239 3.879-2.479 5.815-3.718 3.082-1.971 6.171-3.95 9.253-5.921 0.705-0.448 1.401-0.895 2.106-1.351 0.503-0.318 0.503-1.162 0-1.489-1.936-1.239-3.879-2.479-5.815-3.718-3.082-1.971-6.171-3.95-9.253-5.921-0.705-0.448-1.401-0.895-2.106-1.351-0.24-0.155-0.542-0.155-0.782 0-1.905 1.256-3.802 2.513-5.706 3.769-3.020 1.988-6.039 3.985-9.059 5.973-0.697 0.456-1.386 0.912-2.083 1.377-0.496 0.327-0.503 1.162 0 1.489 1.897 1.222 3.794 2.444 5.691 3.666 3.027 1.945 6.047 3.899 9.074 5.844 0.697 0.448 1.386 0.895 2.083 1.343 0.867 0.559 1.649-0.929 0.782-1.489z"></path>
            <path d="M0.011 12.574c0 3.176 0 6.351 0 9.527 0 0.456 0 0.904 0 1.36 0 1.11 1.549 1.11 1.549 0 0-3.176 0-6.351 0-9.527 0-0.456 0-0.904 0-1.36 0-1.11-1.549-1.11-1.549 0v0z"></path>
            <path d="M3.43 14.416c0 3.811 0 7.622 0 11.433 0 0.592-0.024 1.194 0.056 1.786 0.254 1.839 1.604 3.219 3.129 3.793 1.199 0.451 2.597 0.309 3.843 0.309 4.185 0 8.37 0 12.555 0 1.104 0 2.208 0.009 3.311 0 1.445-0.018 2.938-0.601 3.907-1.839 0.715-0.911 1.040-1.998 1.040-3.201 0-3.979 0-7.958 0-11.937 0-0.115 0-0.23 0-0.345 0-1.141-1.588-1.141-1.588 0 0 3.74 0 7.472 0 11.212 0 0.442 0.008 0.884 0 1.326-0.016 1.406-1.064 2.494-2.287 2.865-1.024 0.309-2.247 0.15-3.296 0.15-4.098 0-8.195 0-12.293 0-1.136 0-2.271 0.009-3.407 0-1.064-0.009-2.16-0.416-2.851-1.362-0.461-0.628-0.548-1.282-0.548-2.060 0-3.926 0-7.861 0-11.787 0-0.115 0-0.23 0-0.345 0.016-1.132-1.572-1.132-1.572 0v0z"></path>
        </symbol>
        <symbol id="icon-filter" viewBox="0 0 36 32">
            <path d="M10.501 18.133c-0.687-1.531-2.044-2.661-3.673-3.060v-13.74c0-0.731-0.602-1.333-1.333-1.333s-1.333 0.602-1.333 1.333v13.733c-0.319 0.081-0.631 0.189-0.933 0.32-1.961 0.888-3.227 2.851-3.227 5.004 0 2.513 1.723 4.72 4.161 5.329v4.947c0 0.731 0.602 1.333 1.333 1.333s1.333-0.602 1.333-1.333v-4.94c1.751-0.428 3.181-1.698 3.813-3.387 0.519-1.364 0.468-2.881-0.14-4.207zM35.167 18.133c-0.687-1.531-2.044-2.661-3.673-3.060v-13.74c0-0.731-0.602-1.333-1.333-1.333s-1.333 0.602-1.333 1.333v13.733c-0.319 0.081-0.631 0.189-0.933 0.32-1.961 0.888-3.227 2.851-3.227 5.004 0 2.513 1.723 4.72 4.161 5.329v4.947c0 0.731 0.602 1.333 1.333 1.333s1.333-0.602 1.333-1.333v-4.94c1.751-0.428 3.181-1.698 3.813-3.387 0.519-1.364 0.468-2.881-0.14-4.207zM19.767 6.667c-0.2-0.073-0.4-0.133-0.607-0.187v-5.147c0-0.731-0.602-1.333-1.333-1.333s-1.333 0.602-1.333 1.333v5.167c-2.437 0.615-4.159 2.825-4.159 5.339 0 0.779 0.165 1.55 0.485 2.261 0.597 1.33 1.702 2.368 3.067 2.88 0.2 0.073 0.407 0.133 0.607 0.187v13.5c0 0.731 0.602 1.333 1.333 1.333s1.333-0.602 1.333-1.333v-13.507c0.321-0.077 0.633-0.183 0.933-0.32 1.981-0.88 3.263-2.853 3.263-5.020 0-2.295-1.437-4.358-3.59-5.153zM8.147 21.4c-0.415 1.101-1.475 1.835-2.651 1.835-1.555 0-2.833-1.279-2.833-2.833 0-1.111 0.653-2.123 1.665-2.581 0.364-0.167 0.759-0.254 1.16-0.253 1.113 0 2.127 0.653 2.587 1.667 0.318 0.681 0.349 1.462 0.087 2.167h-0.013zM32.814 21.4c-0.415 1.101-1.475 1.835-2.651 1.835-1.555 0-2.833-1.279-2.833-2.833 0-1.111 0.653-2.123 1.665-2.581 0.364-0.167 0.759-0.253 1.16-0.253 1.113 0 2.127 0.653 2.587 1.667 0.313 0.683 0.34 1.464 0.073 2.167zM20.501 12.833c-0.415 1.101-1.475 1.834-2.651 1.834-1.111 0-2.125-0.654-2.582-1.667-0.165-0.367-0.251-0.765-0.251-1.167 0-1.553 1.278-2.832 2.831-2.833 0.341 0 0.68 0.061 1 0.18 0.697 0.269 1.258 0.804 1.56 1.487 0.32 0.68 0.354 1.461 0.093 2.167z"></path>
        </symbol>
        <symbol id="icon-diploma" viewBox="0 0 33 32">
            <path d="M16.455 0.914c-8.243 0-14.924 5.525-14.924 12.343s6.681 12.343 14.924 12.343c8.243 0 14.924-5.525 14.924-12.343 0-6.814-6.681-12.343-14.924-12.343zM5.115 28.267c0.215-0.029 2.417-0.346 2.987-0.429 0.693-0.108 1.325 0.209 1.549 0.732 0.206 0.473 1.070 2.392 1.070 2.392l3.338-4.747c-7.716-0.949-13.634-6.421-13.634-13.033 0-7.28 7.177-13.181 16.029-13.181s16.029 5.902 16.029 13.181c0 4.289-2.492 8.098-6.348 10.508l2.886 4.12c0.658 0.938-0.483 1.591-1.307 1.468 0 0-2.408-0.343-3.009-0.433-0.101-0.014-0.14 0.040-0.149 0.065-0.197 0.455-0.991 2.229-1.048 2.359-0.276 0.653-1.54 1.147-2.202 0.206l-2.944-4.192c0.43-0.043 0.855-0.097 1.272-0.166l2.68 3.849c0 0 0.864-1.923 1.070-2.392 0.224-0.527 0.855-0.84 1.549-0.732 0.57 0.083 2.772 0.397 2.987 0.429l-2.799-3.99c-2.496 1.324-5.47 2.089-8.664 2.089-0.369 0-0.728-0.011-1.092-0.029l-3.637 5.137c-0.662 0.941-1.926 0.447-2.202-0.206-0.057-0.13-0.851-1.905-1.048-2.359-0.009-0.025-0.053-0.079-0.149-0.065-0.601 0.090-3.009 0.433-3.009 0.433-0.825 0.123-1.965-0.53-1.307-1.468l2.325-3.308c0.329 0.206 0.671 0.4 1.018 0.588l-2.242 3.174zM9.562 17.371c-0.785 0-1.398 0.417-1.398 0.914s0.613 0.914 1.398 0.914h14.891c0.785 0 1.398-0.417 1.398-0.914s-0.613-0.914-1.398-0.914h-14.891zM8.684 16.457h15.543c1.495 0 2.731 1.011 2.731 2.286s-1.236 2.286-2.731 2.286h-15.543c-1.495 0-2.731-1.011-2.731-2.286 0.004-1.274 1.24-2.286 2.731-2.286zM8.795 18.286h14.211c0.846 0 0.846 0.914 0 0.914h-14.211c-0.841 0-0.841-0.914 0-0.914zM8.684 5.486h15.543c1.495 0 2.731 1.011 2.731 2.286s-1.236 2.286-2.731 2.286h-15.543c-1.495 0-2.731-1.011-2.731-2.286 0.004-1.271 1.24-2.286 2.731-2.286zM9.562 6.4c-0.785 0-1.398 0.417-1.398 0.914s0.613 0.914 1.398 0.914h14.891c0.785 0 1.398-0.417 1.398-0.914s-0.613-0.914-1.398-0.914h-14.891zM8.801 7.314h9.777c0.854 0 0.854 0.914 0 0.914h-9.777c-0.85 0-0.85-0.914 0-0.914zM8.684 10.971h15.543c1.495 0 2.731 1.011 2.731 2.286s-1.236 2.286-2.731 2.286h-15.543c-1.495 0-2.731-1.011-2.731-2.286 0.004-1.274 1.24-2.286 2.731-2.286zM9.562 11.886c-0.785 0-1.398 0.417-1.398 0.914s0.613 0.914 1.398 0.914h14.891c0.785 0 1.398-0.417 1.398-0.914s-0.613-0.914-1.398-0.914h-14.891zM8.832 12.8h6.398c0.896 0 0.896 0.914 0 0.914h-6.398c-0.891 0-0.891-0.914 0-0.914z"></path>
        </symbol>
        <symbol id="icon-hat" viewBox="0 0 55 32">
            <path d="M26.195 0.002c-0.028-0.001-0.057-0.001-0.085 0-0.076 0.004-0.152 0.017-0.225 0.038l-25.298 8c-0.352 0.111-0.588 0.415-0.588 0.756s0.236 0.645 0.588 0.756l8.136 2.572v15.090c-0.001 0.297 0.177 0.57 0.463 0.709 10.687 5.206 22.023 5.66 33.955 0 0.289-0.138 0.47-0.411 0.47-0.709v-15.090l6.978-2.206v8.047c-0.137 0.099-0.271 0.2-0.395 0.319-0.327 0.313-0.65 0.699-0.954 1.131-0.608 0.864-1.179 1.811-1.179 2.85-0 1.757 1.573 3.2 3.489 3.2s3.489-1.443 3.489-3.2c0-1.022-0.548-1.975-1.148-2.844-0.3-0.434-0.62-0.826-0.957-1.144-0.187-0.176-0.358-0.36-0.6-0.494v-8.956c0.015-0.352-0.223-0.672-0.586-0.787l-25.298-8c-0.083-0.025-0.169-0.038-0.256-0.040v0.002zM26.168 1.649l22.62 7.153-22.62 7.156-22.62-7.156 17.823-5.634 12.773 4.037c0.296 0.098 0.627 0.043 0.865-0.146s0.348-0.48 0.287-0.763c-0.061-0.283-0.284-0.514-0.583-0.604l-10.668-3.372 2.123-0.672zM38.369 6.911c-0.419 0.020-0.763 0.312-0.818 0.694s0.194 0.746 0.593 0.865l2.262 0.716c0.298 0.105 0.635 0.052 0.878-0.137s0.354-0.486 0.289-0.773c-0.065-0.287-0.296-0.518-0.601-0.603l-2.259-0.716c-0.082-0.027-0.168-0.043-0.256-0.046-0.030-0.001-0.059-0.001-0.089 0l0-0zM10.468 12.679l15.417 4.875c0.183 0.058 0.382 0.058 0.566 0l15.417-4.875v10.834c-11.149 5.141-21.406 4.737-31.4 0v-10.834zM51.568 19.52c0.203 0.192 0.466 0.5 0.705 0.847 0.486 0.704 0.845 1.64 0.845 1.9 0 0.806-0.689 1.441-1.567 1.441s-1.571-0.635-1.571-1.441c0-0.242 0.377-1.185 0.876-1.894 0.245-0.348 0.508-0.655 0.712-0.853v0zM41.868 25.289v1.384c-11.148 5.138-21.407 4.74-31.4 0.016v-1.378c9.928 4.461 20.408 4.809 31.4-0.022v0z"></path>
        </symbol>
        <symbol id="icon-prijimaci-rizeni" viewBox="0 0 32 32">
            <path d="M13.979 8.381h-10.435c-0.274 0-0.497 0.171-0.497 0.381s0.222 0.381 0.497 0.381h10.435c0.274 0 0.497-0.171 0.497-0.381s-0.222-0.381-0.497-0.381z"></path>
            <path d="M13.979 9.905h-10.435c-0.274 0-0.497 0.171-0.497 0.381s0.222 0.381 0.497 0.381h10.435c0.274 0 0.497-0.171 0.497-0.381s-0.222-0.381-0.497-0.381z"></path>
            <path d="M13.979 12.19h-10.435c-0.274 0-0.497 0.171-0.497 0.381s0.222 0.381 0.497 0.381h10.435c0.274 0 0.497-0.171 0.497-0.381s-0.222-0.381-0.497-0.381z"></path>
            <path d="M14.476 27.048c0-0.21-0.222-0.381-0.497-0.381h-10.435c-0.274 0-0.497 0.171-0.497 0.381s0.222 0.381 0.497 0.381h10.435c0.274 0 0.497-0.171 0.497-0.381z"></path>
            <path d="M3.556 28.19c-0.281 0-0.508 0.171-0.508 0.381s0.227 0.381 0.508 0.381h7.365c0.281 0 0.508-0.171 0.508-0.381s-0.227-0.381-0.508-0.381h-7.365z"></path>
            <path d="M10.921 19.048c0.281 0 0.508-0.171 0.508-0.381s-0.227-0.381-0.508-0.381h-7.365c-0.281 0-0.508 0.171-0.508 0.381s0.227 0.381 0.508 0.381h7.365z"></path>
            <path d="M3.048 24c0 0.631 0.512 1.143 1.143 1.143h2.286c0.631 0 1.143-0.512 1.143-1.143v-2.286c0-0.631-0.512-1.143-1.143-1.143h-2.286c-0.631 0-1.143 0.512-1.143 1.143v2.286zM4.19 21.714h2.286v2.286h-2.286v-2.286z"></path>
            <path d="M13.784 17.287l0.692-0.525h-10.926c-0.277 0-0.502 0.171-0.502 0.381s0.225 0.381 0.502 0.381h9.996c0.065-0.086 0.146-0.166 0.238-0.237v0z"></path>
            <path d="M22.857 8.295c-0.133-0.403-0.509-0.675-0.932-0.676h-4.937c-0.545 0-0.987 0.442-0.987 0.987v4.937c0.001 0.424 0.273 0.8 0.676 0.932l0.932-0.932h-0.621v-4.937h4.937v0.621l0.932-0.932z"></path>
            <path d="M18.066 22.769l-0.542 0.181v1.050c0 0.631 0.512 1.143 1.143 1.143h2.286c0.631 0 1.143-0.512 1.143-1.143v-2.286c0-0.631-0.512-1.143-1.143-1.143h-0.433l-1.143 1.143h1.576v2.286h-2.286v-1.583c-0.174 0.157-0.379 0.277-0.601 0.353z"></path>
            <path d="M12.664 21.714l0.339-1.143h-1.183c-0.637 0-1.154 0.512-1.154 1.143v2.286c0 0.631 0.517 1.143 1.154 1.143h2.308c0.52-0.001 0.975-0.347 1.109-0.845l-0.562 0.186c-0.611 0.202-1.285 0.050-1.749-0.393-0.030-0.029-0.055-0.061-0.083-0.091h-1.023v-2.286h0.843z"></path>
            <path d="M25.905 4.879v-2.879c-0.001-1.104-0.893-1.999-1.993-2h-21.919c-1.1 0.001-1.991 0.896-1.993 2v28c0.001 1.104 0.893 1.999 1.993 2h21.919c1.1-0.001 1.991-0.896 1.993-2v-14.879l-0.996 1v13.879c0 0.552-0.446 1-0.996 1h-21.919c-0.55 0-0.996-0.448-0.996-1v-25.5h23.912v1.379l0.996-1zM0.996 3.5v-1.5c0-0.552 0.446-1 0.996-1h21.919c0.55 0 0.996 0.448 0.996 1v1.5h-23.912z"></path>
            <path d="M28.846 3.956c-0.094-0.094-0.221-0.147-0.354-0.147s-0.26 0.053-0.354 0.147l-13.784 13.784c-0.059 0.059-0.103 0.132-0.127 0.213l-1.253 4.261c-0.053 0.179-0.001 0.373 0.133 0.502s0.329 0.174 0.507 0.115l4.511-1.504c0.074-0.025 0.141-0.066 0.196-0.121l13.534-13.534c0.094-0.094 0.147-0.221 0.147-0.354s-0.053-0.26-0.147-0.354l-3.008-3.008zM14.205 21.577l0.946-3.218 0.056-0.056 2.205 2.205-3.208 1.069zM18.216 19.893l-2.299-2.299 10.82-10.82 2.299 2.299-10.82 10.82zM29.744 8.364l-2.299-2.299 1.046-1.046 2.299 2.299-1.046 1.046z"></path>
        </symbol>
        <symbol id="icon-virtual" viewBox="0 0 31 32">
            <path d="M21.417 16.725h-11.575c1.155 1.995 3.314 3.337 5.788 3.337s4.632-1.342 5.788-3.337zM22.69 16.693c-0.802 1.707-2.207 3.076-3.94 3.833 4.631 1.412 8.016 5.887 8.016 11.19h-1.114c0-5.833-4.499-10.541-10.022-10.541s-10.022 4.708-10.022 10.541h-1.114c0-5.302 3.384-9.778 8.016-11.19-1.733-0.757-3.138-2.126-3.94-3.833-1.050-0.18-1.849-1.093-1.849-2.193v-3.337c0-1.229 0.997-2.225 2.227-2.225h0.284c1.409-2.017 3.749-3.337 6.398-3.337s4.989 1.32 6.398 3.337h0.284c1.23 0 2.227 0.996 2.227 2.225v3.337c0 1.1-0.799 2.013-1.849 2.193h-0zM10.649 8.938h9.96c-1.223-1.365-3.001-2.225-4.98-2.225s-3.757 0.859-4.98 2.225zM8.948 10.051c-0.615 0-1.114 0.498-1.114 1.112v3.337c0 0.614 0.499 1.112 1.114 1.112h13.363c0.615 0 1.114-0.498 1.114-1.112v-3.337c0-0.614-0.499-1.112-1.114-1.112h-13.363zM10.062 12.275v2.225h-1.114v-3.337h13.363v1.112h-12.249zM28.873 18.505l-0.994-0.993 0.787-0.787 2.362 2.36-2.362 2.36-0.787-0.787 1.042-1.041h-4.383v-1.112h4.335zM0.040 16.725h5.568v5.562h-5.568v-5.562zM1.153 17.837v3.337h3.341v-3.337h-3.341zM3.937 0l3.937 3.933-3.937 3.933-3.937-3.933 3.937-3.933zM3.937 1.573l-2.362 2.36 2.362 2.36 2.362-2.36-2.362-2.36zM27.879 6.714c-1.845 0-3.341-1.494-3.341-3.337s1.496-3.337 3.341-3.337c1.845 0 3.341 1.494 3.341 3.337s-1.496 3.337-3.341 3.337zM27.879 5.601c1.23 0 2.227-0.996 2.227-2.225s-0.997-2.225-2.227-2.225c-1.23 0-2.227 0.996-2.227 2.225s0.997 2.225 2.227 2.225z"></path>
        </symbol>
        <symbol id="icon-calendar" viewBox="0 0 35 32">
            <path d="M17.874 27.429h-14.991c-0.955-0.001-1.729-0.768-1.73-1.714v-15.429h29.982v5.714c0 0.316 0.258 0.571 0.577 0.571s0.577-0.256 0.577-0.571v-9.714c-0.002-1.577-1.291-2.855-2.883-2.857h-2.306v-1.143c0-1.262-1.033-2.286-2.306-2.286s-2.306 1.023-2.306 2.286v1.143h-4.036v-1.143c0-1.262-1.033-2.286-2.306-2.286s-2.306 1.023-2.306 2.286v1.143h-4.036v-1.143c0-1.262-1.033-2.286-2.306-2.286s-2.306 1.023-2.306 2.286v1.143h-2.306c-1.591 0.002-2.881 1.28-2.883 2.857v19.429c0.002 1.577 1.292 2.855 2.883 2.857h14.991c0.318 0 0.577-0.256 0.577-0.571s-0.258-0.571-0.577-0.571zM23.64 2.286c0-0.631 0.516-1.143 1.153-1.143s1.153 0.512 1.153 1.143v1.143h-2.306v-1.143zM14.991 2.286c0-0.631 0.516-1.143 1.153-1.143s1.153 0.512 1.153 1.143v1.143h-2.306v-1.143zM6.342 2.286c0-0.631 0.516-1.143 1.153-1.143s1.153 0.512 1.153 1.143v1.143h-2.306v-1.143zM2.883 4.571h2.306v1.143c0 1.262 1.033 2.286 2.306 2.286s2.306-1.023 2.306-2.286h-1.153c0 0.631-0.516 1.143-1.153 1.143s-1.153-0.512-1.153-1.143v-1.143h7.495v1.143c0 1.262 1.033 2.286 2.306 2.286s2.306-1.023 2.306-2.286h-1.153c0 0.631-0.516 1.143-1.153 1.143s-1.153-0.512-1.153-1.143v-1.143h7.495v1.143c0 1.262 1.033 2.286 2.306 2.286s2.306-1.023 2.306-2.286h-1.153c0 0.631-0.516 1.143-1.153 1.143s-1.153-0.512-1.153-1.143v-1.143h5.766c0.955 0.001 1.729 0.768 1.73 1.714v2.857h-29.982v-2.857c0.001-0.946 0.775-1.713 1.73-1.714v0zM14.991 17.714h2.306v2.286h-2.306v-2.286zM17.297 15.429h-2.306v-2.286h2.306v2.286zM12.108 20h-2.306v-2.286h2.306v2.286zM9.802 22.286h2.306v2.286h-2.306v-2.286zM12.108 15.429h-2.306v-2.286h2.306v2.286zM6.919 20h-2.306v-2.286h2.306v2.286zM4.613 22.286h2.306v2.286h-2.306v-2.286zM6.919 15.429h-2.306v-2.286h2.306v2.286zM20.18 15.429v-2.286h2.306v2.286h-2.306zM25.369 15.429v-2.286h2.306v2.286h-2.306zM26.523 16c-4.458 0-8.072 3.582-8.072 8s3.614 8 8.072 8c4.458 0 8.072-3.582 8.072-8-0.005-4.416-3.616-7.995-8.072-8zM26.523 30.857c-3.821 0-6.919-3.070-6.919-6.857s3.098-6.857 6.919-6.857c3.821 0 6.919 3.070 6.919 6.857-0.004 3.785-3.099 6.853-6.919 6.857v0zM26.523 17.714c-3.503 0-6.342 2.814-6.342 6.286s2.84 6.286 6.342 6.286c3.503 0 6.342-2.814 6.342-6.286-0.004-3.47-2.841-6.282-6.342-6.286v0zM26.523 29.143c-2.866 0-5.189-2.303-5.189-5.143s2.323-5.143 5.189-5.143c2.866 0 5.189 2.303 5.189 5.143-0.003 2.839-2.325 5.14-5.189 5.143zM27.099 23.763l2.137 2.118-0.815 0.808-2.475-2.453v-3.665h1.153v3.192z"></path>
        </symbol>
        <symbol id="icon-link" viewBox="0 0 32 32">
            <path d="M30.686 5.471l-4.157-4.157c-1.762-1.752-4.609-1.752-6.371 0l-5.287 5.287c-0.775 0.772-1.211 1.821-1.211 2.915s0.436 2.143 1.211 2.915l1.265-1.265c-0.444-0.434-0.695-1.028-0.695-1.649s0.251-1.216 0.695-1.649l5.287-5.287c0.509-0.51 1.2-0.797 1.92-0.797s1.412 0.287 1.92 0.797l4.157 4.157c0.511 0.509 0.797 1.2 0.797 1.92s-0.287 1.412-0.797 1.92l-5.287 5.287c-0.434 0.444-1.028 0.695-1.649 0.695s-1.216-0.251-1.649-0.695l-1.265 1.265c0.772 0.775 1.821 1.211 2.915 1.211s2.143-0.436 2.915-1.211l5.287-5.287c1.752-1.762 1.752-4.609 0-6.371z"></path>
            <path d="M17.13 19.57l-1.265 1.265c0.444 0.434 0.695 1.028 0.695 1.649s-0.251 1.216-0.695 1.649l-5.287 5.287c-0.509 0.511-1.2 0.797-1.92 0.797s-1.412-0.287-1.92-0.797l-4.157-4.157c-0.51-0.509-0.797-1.2-0.797-1.92s0.287-1.412 0.797-1.92l5.287-5.287c0.434-0.444 1.028-0.695 1.649-0.695s1.216 0.251 1.649 0.695l1.265-1.265c-0.772-0.775-1.821-1.211-2.915-1.211s-2.143 0.436-2.915 1.211l-5.287 5.287c-1.752 1.762-1.752 4.609 0 6.371l4.157 4.157c1.763 1.752 4.609 1.752 6.371 0l5.287-5.287c0.775-0.772 1.211-1.821 1.211-2.915s-0.436-2.143-1.211-2.915z"></path>
            <path d="M26.8 21.468c-0.299-0.129-0.644-0.089-0.905 0.105s-0.399 0.513-0.361 0.836c0.037 0.323 0.245 0.602 0.543 0.731l4.112 1.762 0.361 0.090c0.463 0.049 0.887-0.261 0.98-0.717s-0.174-0.908-0.619-1.045l-4.112-1.762z"></path>
            <path d="M21.965 25.58c-0.461 0.188-0.683 0.713-0.497 1.175l1.762 4.157c0.142 0.324 0.459 0.536 0.813 0.542l0.361-0.090c0.461-0.188 0.683-0.713 0.497-1.175l-1.762-4.112c-0.188-0.461-0.713-0.683-1.175-0.497z"></path>
            <path d="M1.811 7.098c-0.462-0.2-0.998 0.013-1.197 0.474s0.013 0.998 0.474 1.197l4.112 1.762 0.362 0.090c0.415-0.014 0.767-0.31 0.853-0.717s-0.117-0.819-0.492-1l-4.112-1.808z"></path>
            <path d="M7.55 0.636c-0.461 0.188-0.683 0.713-0.497 1.175l1.762 4.112c0.148 0.34 0.488 0.555 0.859 0.542l0.361-0.090c0.461-0.188 0.683-0.713 0.497-1.175l-1.762-4.112c-0.098-0.225-0.284-0.4-0.514-0.485s-0.485-0.073-0.706 0.033z"></path>
        </symbol>
        <symbol id="icon-info" viewBox="0 0 32 32">
            <path d="M16 5.647c-1.557 0-2.824 1.266-2.824 2.824s1.266 2.824 2.824 2.824c1.557 0 2.824-1.266 2.824-2.824s-1.266-2.824-2.824-2.824zM16 9.882c-0.778 0-1.412-0.633-1.412-1.412s0.633-1.412 1.412-1.412c0.778 0 1.412 0.633 1.412 1.412s-0.634 1.412-1.412 1.412z"></path>
            <path d="M18.165 12.235h-5.271c-0.364 0-0.659 0.306-0.659 0.684v2.738c0 0.378 0.295 0.684 0.659 0.684h0.659v10.267c0 0.378 0.295 0.684 0.659 0.684h3.953c0.364 0 0.659-0.306 0.659-0.684v-13.69c-0-0.378-0.295-0.684-0.659-0.684zM17.506 25.925h-2.635v-10.267c0-0.378-0.295-0.684-0.659-0.684h-0.659v-1.369h3.953v12.321h0z"></path>
            <path d="M16 0c-8.822 0-16 7.178-16 16s7.178 16 16 16c8.822 0 16-7.178 16-16s-7.178-16-16-16zM16 30.667c-8.087 0-14.667-6.579-14.667-14.667s6.579-14.667 14.667-14.667c8.087 0 14.667 6.579 14.667 14.667s-6.579 14.667-14.667 14.667z"></path>
        </symbol>
        <symbol id="icon-alert" viewBox="0 0 36 32">
            <path d="M23.086 2.728c-1.006-1.688-2.866-2.728-4.879-2.728s-3.872 1.040-4.879 2.728l-12.573 21.089c-1.006 1.688-1.007 3.767-0 5.455s2.866 2.728 4.879 2.728h25.147c2.013 0 3.873-1.040 4.879-2.728s1.006-3.768-0-5.456l-12.573-21.089zM34.397 28.567c-0.739 1.258-2.122 2.031-3.617 2.022h-25.147c-1.492-0-2.871-0.771-3.617-2.022s-0.746-2.793 0-4.044l12.573-21.089c0.746-1.251 2.125-2.022 3.617-2.022s2.871 0.771 3.617 2.022l12.573 21.089c0.755 1.249 0.755 2.796-0 4.045zM18.207 22.785c-1.496 0-2.709 1.175-2.709 2.624s1.213 2.624 2.709 2.624c1.496 0 2.709-1.175 2.709-2.624-0.002-1.448-1.214-2.622-2.709-2.624v0zM18.207 26.621c-0.506 0-0.963-0.295-1.157-0.749s-0.087-0.975 0.271-1.322c0.358-0.347 0.897-0.451 1.365-0.263s0.773 0.63 0.773 1.12c-0.001 0.669-0.561 1.212-1.252 1.213v0zM18.207 6.334c-1.496 0.002-2.707 1.175-2.709 2.624v8.991c0 0.937 0.516 1.803 1.355 2.272s1.871 0.469 2.709 0c0.838-0.469 1.355-1.335 1.355-2.272v-8.991c-0.002-1.448-1.214-2.622-2.709-2.624v0zM19.459 17.948c0 0.67-0.561 1.213-1.252 1.213s-1.252-0.543-1.252-1.213v-8.991c0-0.67 0.561-1.213 1.252-1.213s1.252 0.543 1.252 1.213v8.991z"></path>
        </symbol>
        <symbol id="icon-hat" viewBox="0 0 55 32">
            <path d="M26.195 0.002c-0.028-0.001-0.057-0.001-0.085 0-0.076 0.004-0.152 0.017-0.225 0.038l-25.298 8c-0.352 0.111-0.588 0.415-0.588 0.756s0.236 0.645 0.588 0.756l8.136 2.572v15.090c-0.001 0.297 0.177 0.57 0.463 0.709 10.687 5.206 22.023 5.66 33.955 0 0.289-0.138 0.47-0.411 0.47-0.709v-15.090l6.978-2.206v8.047c-0.137 0.099-0.271 0.2-0.395 0.319-0.327 0.313-0.65 0.699-0.954 1.131-0.608 0.864-1.179 1.811-1.179 2.85-0 1.757 1.573 3.2 3.489 3.2s3.489-1.443 3.489-3.2c0-1.022-0.548-1.975-1.148-2.844-0.3-0.434-0.62-0.826-0.957-1.144-0.187-0.176-0.358-0.36-0.6-0.494v-8.956c0.015-0.352-0.223-0.672-0.586-0.787l-25.298-8c-0.083-0.025-0.169-0.038-0.256-0.040v0.002zM26.168 1.649l22.62 7.153-22.62 7.156-22.62-7.156 17.823-5.634 12.773 4.037c0.296 0.098 0.627 0.043 0.865-0.146s0.348-0.48 0.287-0.763c-0.061-0.283-0.284-0.514-0.583-0.604l-10.668-3.372 2.123-0.672zM38.369 6.911c-0.419 0.020-0.763 0.312-0.818 0.694s0.194 0.746 0.593 0.865l2.262 0.716c0.298 0.105 0.635 0.052 0.878-0.137s0.354-0.486 0.289-0.773c-0.065-0.287-0.296-0.518-0.601-0.603l-2.259-0.716c-0.082-0.027-0.168-0.043-0.256-0.046-0.030-0.001-0.059-0.001-0.089 0l0-0zM10.468 12.679l15.417 4.875c0.183 0.058 0.382 0.058 0.566 0l15.417-4.875v10.834c-11.149 5.141-21.406 4.737-31.4 0v-10.834zM51.568 19.52c0.203 0.192 0.466 0.5 0.705 0.847 0.486 0.704 0.845 1.64 0.845 1.9 0 0.806-0.689 1.441-1.567 1.441s-1.571-0.635-1.571-1.441c0-0.242 0.377-1.185 0.876-1.894 0.245-0.348 0.508-0.655 0.712-0.853v0zM41.868 25.289v1.384c-11.148 5.138-21.407 4.74-31.4 0.016v-1.378c9.928 4.461 20.408 4.809 31.4-0.022v0z"></path>
        </symbol>
        <symbol id="icon-documents" viewBox="0 0 21 32">
            <path d="M14.212 2.065h-1.453c-0.216-1.177-1.163-2.065-2.297-2.065s-2.082 0.888-2.297 2.065h-1.453c-0.263 0-0.469 0.227-0.469 0.516v0.516h-5.157c-0.263 0-0.469 0.227-0.469 0.516v27.871c0 0.289 0.206 0.516 0.469 0.516h18.755c0.263 0 0.469-0.227 0.469-0.516v-27.871c0-0.289-0.206-0.516-0.469-0.516h-5.157v-0.516c0-0.289-0.206-0.516-0.469-0.516zM7.179 3.097h1.407c0.263 0 0.469-0.227 0.469-0.516 0-0.857 0.628-1.548 1.407-1.548s1.407 0.692 1.407 1.548c0 0.289 0.206 0.516 0.469 0.516h1.407v1.032h-6.564v-1.032zM19.37 4.129v26.839h-17.817v-26.839h4.689v0.516c0 0.289 0.206 0.516 0.469 0.516h7.502c0.263 0 0.469-0.227 0.469-0.516v-0.516h4.689z"></path>
            <path d="M4.366 10.839c0 0.289 0.206 0.516 0.469 0.516h11.253c0.263 0 0.469-0.227 0.469-0.516s-0.206-0.516-0.469-0.516h-11.253c-0.263 0-0.469 0.227-0.469 0.516z"></path>
            <path d="M16.088 14.452h-11.253c-0.263 0-0.469 0.227-0.469 0.516s0.206 0.516 0.469 0.516h11.253c0.263 0 0.469-0.227 0.469-0.516s-0.206-0.516-0.469-0.516z"></path>
            <path d="M16.088 18.581h-11.253c-0.263 0-0.469 0.227-0.469 0.516s0.206 0.516 0.469 0.516h11.253c0.263 0 0.469-0.227 0.469-0.516s-0.206-0.516-0.469-0.516z"></path>
            <path d="M16.088 22.71h-11.253c-0.263 0-0.469 0.227-0.469 0.516s0.206 0.516 0.469 0.516h11.253c0.263 0 0.469-0.227 0.469-0.516s-0.206-0.516-0.469-0.516z"></path>
            <path d="M16.088 26.839h-11.253c-0.263 0-0.469 0.227-0.469 0.516s0.206 0.516 0.469 0.516h11.253c0.263 0 0.469-0.227 0.469-0.516s-0.206-0.516-0.469-0.516z"></path>
        </symbol>
        <symbol id="icon-logo" viewBox="0 0 118 32">
            <path fill="#1c4d9b" style="fill: var(--color1, #1c4d9b)" d="M14.539 8.244h4.946l3.522 10.042h0.525l3.447-10.042h4.946l-5.321 14.539h-6.745l-5.321-14.539z"></path>
            <path fill="#1c4d9b" style="fill: var(--color1, #1c4d9b)" d="M30.951 15.513c0-4.646 3.222-7.719 8.244-7.719s8.244 3.073 8.244 7.719-3.222 7.719-8.244 7.719c-5.021 0.075-8.244-3.073-8.244-7.719zM42.642 15.513c0-2.323-1.574-3.597-3.447-3.597s-3.447 1.349-3.447 3.597 1.574 3.597 3.447 3.597c1.874 0 3.447-1.274 3.447-3.597z"></path>
            <path fill="#1c4d9b" style="fill: var(--color1, #1c4d9b)" d="M47.963 17.911h4.272c0.075 0.974 0.899 1.574 2.923 1.574 1.799 0 2.698-0.525 2.698-1.199 0-0.45-0.225-0.974-1.649-1.124l-1.874-0.3c-2.773-0.45-6.070-0.749-6.070-4.497 0-2.848 2.323-4.646 6.97-4.646 4.197 0 7.044 1.124 6.97 5.321h-4.272c-0.15-0.974-0.974-1.574-2.848-1.574-1.574 0-2.248 0.45-2.248 1.124 0 0.45 0.225 0.899 1.349 1.124l1.574 0.225c2.923 0.45 6.82 0.6 6.82 4.571 0 3.148-2.473 4.721-7.419 4.721s-7.344-1.499-7.194-5.321z"></path>
            <path fill="#f8d84b" style="fill: var(--color2, #f8d84b)" d="M74.567 22.782l-3.897-5.171h-0.3l-2.023 2.098v3.073h-4.796v-14.539h4.796v5.771h0.3l5.246-5.771h5.321l-5.92 6.445 6.070 8.094h-4.796z"></path>
            <path fill="#f8d84b" style="fill: var(--color2, #f8d84b)" d="M77.789 15.513c0-4.646 3.222-7.719 8.244-7.719s8.244 3.073 8.244 7.719-3.222 7.719-8.244 7.719-8.244-3.073-8.244-7.719zM89.48 15.513c0-2.323-1.574-3.597-3.447-3.597s-3.447 1.349-3.447 3.597 1.574 3.597 3.447 3.597c1.874 0 3.447-1.274 3.447-3.597z"></path>
            <path fill="#f8d84b" style="fill: var(--color2, #f8d84b)" d="M95.176 8.244h8.244c3.972 0 6.295 1.799 6.295 5.696s-2.323 5.696-6.295 5.696h-3.447v3.148h-4.796v-14.539zM103.044 15.663c1.124 0 1.874-0.6 1.874-1.724s-0.749-1.724-1.874-1.724h-3.073v3.372h3.073z"></path>
            <path fill="#1c4d9b" style="fill: var(--color1, #1c4d9b)" d="M10.792 8.393l2.248 4.571h-4.571z"></path>
            <path fill="#1c4d9b" style="fill: var(--color1, #1c4d9b)" d="M10.792 22.782l-2.323-4.497h4.571z"></path>
        </symbol>
        <symbol id="icon-logo-no-color" viewBox="0 0 105 32">
            <path d="M12.846 10.093h4.014l2.867 8.258h0.459l2.753-8.258h4.014l-4.358 11.928h-5.391l-4.358-11.928z"></path>
            <path d="M26.265 16.057c0-3.785 2.638-6.308 6.767-6.308s6.767 2.523 6.767 6.308-2.638 6.308-6.767 6.308c-4.129 0-6.767-2.523-6.767-6.308zM35.785 16.057c0-1.95-1.262-2.982-2.867-2.982-1.491 0-2.867 1.147-2.867 2.982s1.262 2.982 2.867 2.982c1.606-0.115 2.867-1.147 2.867-2.982z"></path>
            <path d="M40.143 18.007h3.441c0.115 0.803 0.688 1.262 2.409 1.262 1.491 0 2.179-0.459 2.179-1.032 0-0.344-0.229-0.803-1.376-0.918l-1.491-0.229c-2.294-0.344-4.932-0.573-4.932-3.67 0-2.294 1.95-3.785 5.735-3.785 3.441 0 5.735 0.918 5.735 4.358h-3.441c-0.115-0.803-0.803-1.262-2.294-1.262-1.262 0-1.835 0.344-1.835 0.918 0 0.344 0.229 0.688 1.147 0.918l1.262 0.229c2.409 0.344 5.62 0.459 5.62 3.785 0 2.523-2.065 3.9-6.079 3.9-4.244-0.115-6.194-1.376-6.079-4.473z"></path>
            <path d="M61.821 21.907l-3.211-4.244h-0.229l-1.606 1.72v2.523h-3.9v-11.814h3.9v4.702h0.229l4.244-4.703h4.358l-4.817 5.276 4.932 6.652c0-0.115-3.9-0.115-3.9-0.115z"></path>
            <path d="M64.459 16.057c0-3.785 2.638-6.308 6.767-6.308s6.767 2.409 6.767 6.308-2.638 6.308-6.767 6.308-6.767-2.523-6.767-6.308zM73.978 16.057c0-1.95-1.262-2.982-2.867-2.982-1.491 0-2.867 1.147-2.867 2.982s1.262 2.982 2.867 2.982c1.606-0.115 2.867-1.147 2.867-2.982z"></path>
            <path d="M78.681 10.093h6.767c3.211 0 5.161 1.491 5.161 4.702s-1.95 4.703-5.161 4.703h-2.867v2.523h-3.9v-11.928zM85.104 16.172c0.918 0 1.491-0.459 1.491-1.376s-0.573-1.376-1.491-1.376h-2.523v2.638l2.523 0.115z"></path>
            <path d="M9.749 10.208l1.835 3.67h-3.785z"></path>
            <path d="M9.749 21.907l-1.95-3.67h3.785z"></path>
        </symbol>
        <symbol id="icon-bank" viewBox="0 0 26 32">
            <path d="M12.8 4c-1.105 0-2 0.895-2 2s0.895 2 2 2c1.105 0 2-0.895 2-2v0c-0.001-1.104-0.896-1.999-2-2h-0zM12.8 7.2c-0.663 0-1.2-0.537-1.2-1.2s0.537-1.2 1.2-1.2c0.663 0 1.2 0.537 1.2 1.2v0c-0.001 0.662-0.538 1.199-1.2 1.2h-0z"></path>
            <path d="M21.6 12.4c0.221 0 0.4-0.179 0.4-0.4v0-1.2h1.2c0.221 0 0.4-0.179 0.4-0.4v0-1.6c0-0.003-0.002-0.006-0.002-0.009-0.001-0.051-0.011-0.1-0.030-0.144l0.001 0.003c-0.004-0.011-0.012-0.019-0.017-0.029-0.023-0.050-0.057-0.092-0.099-0.123l-0.001-0.001c-0.013-0.013-0.027-0.025-0.042-0.037l-0.001-0.001-10.4-6.4c-0.060-0.037-0.132-0.059-0.21-0.059s-0.15 0.022-0.211 0.060l0.002-0.001-10.4 6.4c-0.016 0.012-0.030 0.024-0.043 0.037l-0 0c-0.015 0.011-0.028 0.023-0.040 0.035l0-0c-0.023 0.026-0.043 0.055-0.059 0.087l-0.001 0.002c-0.005 0.010-0.013 0.018-0.017 0.029-0.017 0.042-0.028 0.090-0.029 0.141v0c-0 0.003-0.002 0.006-0.002 0.009v1.6c0 0.221 0.179 0.4 0.4 0.4v0h1.2v1.2c0 0.221 0.179 0.4 0.4 0.4v0h0.4v7.2h-0.4c-0.221 0-0.4 0.179-0.4 0.4v0 1.2h-1.2c-0.221 0-0.4 0.179-0.4 0.4v0 1.6c0 0.221 0.179 0.4 0.4 0.4v0h20.8c0.221 0 0.4-0.179 0.4-0.4v0-1.6c0-0.221-0.179-0.4-0.4-0.4v0h-1.2v-1.2c0-0.221-0.179-0.4-0.4-0.4v0h-0.4v-7.2zM21.2 11.6h-3.2v-0.8h3.2zM17.6 19.6c-0.221 0-0.4 0.179-0.4 0.4v0 1.2h-2v-1.2c0-0.221-0.179-0.4-0.4-0.4v0h-0.4v-7.2h0.4c0.221 0 0.4-0.179 0.4-0.4v0-1.2h2v1.2c0 0.221 0.179 0.4 0.4 0.4v0h0.4v7.2zM8.4 21.2v-1.2c0-0.221-0.179-0.4-0.4-0.4v0h-0.4v-7.2h0.4c0.221 0 0.4-0.179 0.4-0.4v0-1.2h2v1.2c0 0.221 0.179 0.4 0.4 0.4v0h0.4v7.2h-0.4c-0.221 0-0.4 0.179-0.4 0.4v0 1.2zM13.6 19.6h-1.6v-7.2h1.6zM14 11.6h-2.8v-0.8h3.2v0.8zM11.2 20.4h3.2v0.8h-3.2zM12.8 2.87l8.987 5.53h-17.973zM2.8 9.2h20v0.8h-20zM7.6 10.8v0.8h-3.2v-0.8zM5.2 12.4h1.6v7.2h-1.6zM4.4 20.4h3.2v0.8h-3.2zM22.8 22.8h-20v-0.8h20zM18 21.2v-0.8h3.2v0.8zM20.4 19.6h-1.6v-7.2h1.6z"></path>
        </symbol>
        <symbol id="icon-info-full" viewBox="0 0 32 32">
            <path d="M27.315 4.686c-6.248-6.248-16.38-6.248-22.629 0s-6.248 16.38 0 22.629c6.248 6.247 16.38 6.248 22.629 0 6.248-6.249 6.247-16.38 0-22.629zM18.087 22.957c0 1.153-0.934 2.087-2.087 2.087s-2.087-0.934-2.087-2.087v-8.348c0-1.153 0.934-2.087 2.087-2.087s2.087 0.934 2.087 2.087v8.348zM15.963 11.042c-1.202 0-2.004-0.851-1.978-1.903-0.025-1.102 0.776-1.928 2.003-1.928s2.004 0.826 2.029 1.928c-0.001 1.051-0.801 1.903-2.054 1.903z"></path>
        </symbol>
        <symbol id="icon-info-i" viewBox="0 0 32 32">
            <path d="M22.646 28.547l-0.447 1.828c-1.341 0.529-2.413 0.932-3.211 1.209s-1.727 0.416-2.784 0.416c-1.624 0-2.887-0.398-3.788-1.188-0.901-0.793-1.351-1.799-1.351-3.018 0-0.472 0.033-0.958 0.101-1.452s0.178-1.053 0.327-1.677l1.676-5.933c0.149-0.568 0.276-1.106 0.377-1.616 0.103-0.506 0.153-0.971 0.153-1.39 0-0.758-0.157-1.288-0.469-1.586s-0.908-0.448-1.793-0.448c-0.433 0-0.879 0.069-1.333 0.204-0.456 0.135-0.846 0.265-1.173 0.386l0.448-1.829c1.098-0.447 2.148-0.83 3.152-1.148s1.953-0.478 2.85-0.478c1.613 0 2.857 0.39 3.731 1.169s1.311 1.791 1.311 3.037c0 0.258-0.029 0.712-0.090 1.361-0.060 0.651-0.172 1.247-0.336 1.789l-1.669 5.909c-0.137 0.475-0.26 1.017-0.367 1.628-0.11 0.607-0.163 1.070-0.163 1.381 0 0.785 0.175 1.32 0.526 1.605 0.353 0.285 0.962 0.426 1.826 0.426 0.406 0 0.868-0.072 1.381-0.213 0.512-0.141 0.885-0.266 1.116-0.374zM23.069 3.737c0 1.030-0.388 1.909-1.168 2.632-0.778 0.726-1.715 1.089-2.811 1.089-1.1 0-2.039-0.363-2.826-1.089-0.785-0.723-1.179-1.602-1.179-2.632 0-1.028 0.393-1.908 1.179-2.641 0.785-0.731 1.727-1.096 2.826-1.096 1.096 0 2.034 0.366 2.811 1.096 0.78 0.732 1.168 1.613 1.168 2.641z"></path>
        </symbol>
        <symbol id="icon-newspaper" viewBox="0 0 32 32">
            <path d="M31.063 7.563h-7.125v-5.563c0-0.518-0.42-0.938-0.938-0.938h-22.063c-0.518 0-0.938 0.42-0.938 0.938v24.25c0 2.585 2.103 4.688 4.688 4.688h22.625c2.585 0 4.688-2.103 4.688-4.688v-17.75c0-0.518-0.42-0.938-0.938-0.938zM4.688 29.063c-1.551 0-2.813-1.262-2.813-2.813v-23.313h20.188c0 24.779-0.012 23.401 0.021 23.755 0.081 0.869 0.406 1.689 0.918 2.37zM30.125 26.25c0 1.551-1.262 2.813-2.813 2.813-0.21 0-0.356 0-0.563 0-1.551 0-2.813-1.262-2.813-2.813v-16.813h6.188z"></path>
            <path d="M19 5.563h-14c-0.518 0-0.938 0.42-0.938 0.938s0.42 0.938 0.938 0.938h14c0.518 0 0.938-0.42 0.938-0.938s-0.42-0.938-0.938-0.938z"></path>
            <path d="M19 9.563h-14c-0.518 0-0.938 0.42-0.938 0.938s0.42 0.938 0.938 0.938h14c0.518 0 0.938-0.42 0.938-0.938s-0.42-0.938-0.938-0.938z"></path>
            <path d="M19 24.563h-14c-0.518 0-0.938 0.42-0.938 0.938s0.42 0.938 0.938 0.938h14c0.518 0 0.938-0.42 0.938-0.938s-0.42-0.938-0.938-0.938z"></path>
            <path d="M19 13.563h-7c-0.518 0-0.938 0.42-0.938 0.938v7c0 0.518 0.42 0.938 0.938 0.938h7c0.518 0 0.938-0.42 0.938-0.938v-7c0-0.518-0.42-0.938-0.938-0.938zM18.063 20.563h-5.125v-5.125h5.125z"></path>
            <path d="M5 16.938h3c0.518 0 0.938-0.42 0.938-0.938s-0.42-0.938-0.938-0.938h-3c-0.518 0-0.938 0.42-0.938 0.938s0.42 0.938 0.938 0.938z"></path>
            <path d="M5 20.938h3c0.518 0 0.938-0.42 0.938-0.938s-0.42-0.938-0.938-0.938h-3c-0.518 0-0.938 0.42-0.938 0.938s0.42 0.938 0.938 0.938z"></path>
        </symbol>
        <symbol id="icon-swiper-side" viewBox="0 0 32 32">
            <path d="M23.742 13.935c-0.002 0-0.005-0-0.008-0-0.429 0-0.827 0.133-1.155 0.361l0.007-0.004c-0.287-0.812-1.047-1.384-1.94-1.388h-0.001c-0.382 0.002-0.738 0.109-1.041 0.294l0.009-0.005v-7.515c0.002-0.034 0.003-0.074 0.003-0.114 0-1.142-0.926-2.068-2.068-2.068-1.102 0-2.003 0.862-2.064 1.949l-0 0.005c-0.302-0.182-0.666-0.29-1.055-0.29-0.147 0-0.291 0.015-0.429 0.045l0.013-0.002c-0.939 0.227-1.626 1.061-1.626 2.055 0 0.016 0 0.032 0.001 0.048l-0-0.002v11.969l-1.414-1.615c-0.475-0.537-1.166-0.874-1.936-0.874-0.609 0-1.168 0.211-1.61 0.564l0.005-0.004-0.361 0.289c-0.357 0.278-0.585 0.709-0.585 1.192 0 0.292 0.083 0.565 0.227 0.796l-0.004-0.006 3.68 5.935c1.423 2.565 4.079 4.295 7.146 4.387l0.013 0c4.561 0 8.258-3.697 8.258-8.258v0-5.677c0-1.14-0.924-2.065-2.065-2.065v0zM17.548 28.903c-2.704-0.093-5.031-1.621-6.252-3.843l-0.019-0.038-3.67-5.966c-0.043-0.071-0.069-0.156-0.069-0.247 0-0.15 0.069-0.284 0.176-0.372l0.001-0.001 0.361-0.289c0.261-0.208 0.596-0.333 0.96-0.333 0.462 0 0.876 0.202 1.16 0.523l0.001 0.002 2.317 2.648c0.095 0.107 0.233 0.175 0.387 0.175 0.285 0 0.516-0.231 0.516-0.515v-13.342c-0.001-0.015-0.001-0.033-0.001-0.051 0-0.506 0.343-0.931 0.809-1.057l0.008-0.002c0.065-0.015 0.14-0.023 0.217-0.023 0.57 0 1.032 0.462 1.032 1.032 0 0.008-0 0.016-0 0.024l0-0.001v10.323c0 0.285 0.231 0.516 0.516 0.516s0.516-0.231 0.516-0.516v0-11.871c0-0.57 0.462-1.032 1.032-1.032s1.032 0.462 1.032 1.032v0 11.871c0 0.285 0.231 0.516 0.516 0.516s0.516-0.231 0.516-0.516v0-2.581c0-0.57 0.462-1.032 1.032-1.032s1.032 0.462 1.032 1.032v0 2.581c0 0.285 0.231 0.516 0.516 0.516s0.516-0.231 0.516-0.516v0-1.548c0-0.57 0.462-1.032 1.032-1.032s1.032 0.462 1.032 1.032v0 5.677c0 3.991-3.235 7.226-7.226 7.226v0z"></path>
            <path d="M20.645 8.774h3.917l-1.187 1.182c-0.094 0.094-0.153 0.223-0.153 0.366s0.058 0.273 0.153 0.366l0 0c0.094 0.094 0.223 0.153 0.366 0.153s0.273-0.058 0.366-0.153l0-0 2.426-2.431-2.426-2.431c-0.094-0.094-0.223-0.152-0.366-0.152-0.286 0-0.518 0.232-0.518 0.518 0 0.143 0.058 0.273 0.152 0.366v0l1.187 1.182h-3.917c-0.285 0-0.516 0.231-0.516 0.516s0.231 0.516 0.516 0.516v0z"></path>
            <path d="M7.742 8.774h3.613c0.285 0 0.516-0.231 0.516-0.516s-0.231-0.516-0.516-0.516v0h-3.613c-0.285 0-0.516 0.231-0.516 0.516s0.231 0.516 0.516 0.516v0z"></path>
        </symbol>
        <symbol id="icon-twitter" viewBox="0 0 32 32">
            <path d="M32 7.075c-1.175 0.525-2.444 0.875-3.769 1.031 1.356-0.813 2.394-2.1 2.887-3.631-1.269 0.75-2.675 1.3-4.169 1.594-1.2-1.275-2.906-2.069-4.794-2.069-3.625 0-6.563 2.938-6.563 6.563 0 0.512 0.056 1.012 0.169 1.494-5.456-0.275-10.294-2.888-13.531-6.862-0.563 0.969-0.887 2.1-0.887 3.3 0 2.275 1.156 4.287 2.919 5.463-1.075-0.031-2.087-0.331-2.975-0.819 0 0.025 0 0.056 0 0.081 0 3.181 2.263 5.838 5.269 6.437-0.55 0.15-1.131 0.231-1.731 0.231-0.425 0-0.831-0.044-1.237-0.119 0.838 2.606 3.263 4.506 6.131 4.563-2.25 1.762-5.075 2.813-8.156 2.813-0.531 0-1.050-0.031-1.569-0.094 2.913 1.869 6.362 2.95 10.069 2.95 12.075 0 18.681-10.006 18.681-18.681 0-0.287-0.006-0.569-0.019-0.85 1.281-0.919 2.394-2.075 3.275-3.394z"></path>
        </symbol>
        <symbol id="icon-linkedin2" viewBox="0 0 32 32">
            <path d="M12 12h5.535v2.837h0.079c0.77-1.381 2.655-2.837 5.464-2.837 5.842 0 6.922 3.637 6.922 8.367v9.633h-5.769v-8.54c0-2.037-0.042-4.657-3.001-4.657-3.005 0-3.463 2.218-3.463 4.509v8.688h-5.767v-18z"></path>
            <path d="M2 12h6v18h-6v-18z"></path>
            <path d="M8 7c0 1.657-1.343 3-3 3s-3-1.343-3-3c0-1.657 1.343-3 3-3s3 1.343 3 3z"></path>
        </symbol>
    </defs>
</svg>