<?xml version="1.0" encoding="UTF-8"?>
<svg width="173px" height="34px" viewBox="0 0 173 34" version="1.1" xmlns="http://www.w3.org/2000/svg" xmlns:xlink="http://www.w3.org/1999/xlink">
    <title>srovnejto logo</title>
    <g id="Symbols" stroke="none" stroke-width="1" fill="none" fill-rule="evenodd">
        <g id="srovnejto-logo" fill="#FFFFFF">
            <path d="M110.44,7.75 L110.44,23.16 C110.44,27.05 109.57,29.41 107.93,30.94 C106.29,32.47 103.71,33.12 101.06,33.12 L100.52,28.79 C101.97,28.68 103.1,28.35 103.79,27.63 C104.59,26.79 104.88,25.38 104.88,21.85 L104.88,7.75 L110.44,7.75 Z M134.01,7.35 C139.14,7.35 143.3,11.51 143.3,16.64 C143.3,21.77 139.14,25.93 134.01,25.93 C128.88,25.93 124.72,21.77 124.72,16.64 C124.72,11.51 128.88,7.35 134.01,7.35 Z M36.61,7.34 C42.06,7.35 45.7,11.09 45.7,16.43 C45.7,22.94 41.08,25.92 36.32,25.92 C31.12,25.92 27.12,22.5 27.12,16.76 C27.12,11.02 30.9,7.34 36.61,7.34 Z M7.67,7.35 C9.74,7.35 11.6,7.82 12.69,8.37 L11.71,12.19 C10.91,11.75 9.38,11.17 7.86,11.17 C6.52,11.17 5.75,11.72 5.75,12.62 C5.75,13.46 6.44,13.89 8.62,14.66 C12,15.82 13.42,17.53 13.45,20.15 C13.45,23.46 10.83,25.89 5.74,25.89 C3.41,25.89 1.34,25.38 -4.75175455e-13,24.65 L0.99,20.69 C2.01,21.31 4.12,22.04 5.75,22.04 C7.42,22.04 8.11,21.46 8.11,20.55 C8.11,19.64 7.56,19.2 5.49,18.51 C1.82,17.27 0.4,15.27 0.44,13.17 C0.44,9.86 3.28,7.35 7.67,7.35 Z M94.06,7.34 C99.8,7.34 101.99,11.81 101.99,16.21 C101.99,17.16 101.88,17.99 101.81,18.39 L90.34,18.39 L90.34,18.4 C90.52,20.69 92.78,21.78 95.36,21.78 C97.25,21.78 98.78,21.53 100.27,21.05 L101,24.79 C99.18,25.52 96.97,25.88 94.57,25.88 C88.54,25.88 85.08,22.39 85.08,16.83 C85.08,12.32 87.88,7.34 94.06,7.34 Z M119.86,2.66 L119.86,7.75 L123.82,7.75 L123.82,11.82 L119.86,11.82 L119.86,18.25 C119.86,20.4 120.37,21.38 122.04,21.38 C122.73,21.38 123.28,21.31 123.68,21.23 L123.72,25.41 C122.99,25.7 121.68,25.88 120.12,25.88 C118.34,25.88 116.85,25.26 115.98,24.35 C114.96,23.3 114.45,21.59 114.45,19.08 L114.45,11.81 L112.09,11.81 L112.09,7.75 L114.45,7.75 L114.45,3.89 L119.86,2.66 Z M146.41,22.45 C147.34,22.45 147.98,23.14 147.98,24.13 C147.98,25.09 147.37,25.81 146.38,25.81 C145.45,25.81 144.81,25.09 144.81,24.13 C144.81,23.14 145.48,22.45 146.41,22.45 Z M157,12.35 C158.39,12.35 159.61,12.7 160.25,13.02 L159.72,14.83 C159.16,14.51 158.28,14.22 157,14.22 C154.04,14.22 152.44,16.41 152.44,19.1 C152.44,22.09 154.36,23.93 156.92,23.93 C158.25,23.93 159.13,23.58 159.8,23.29 L160.21,25.04 C159.6,25.36 158.24,25.79 156.5,25.79 C152.61,25.79 150.07,23.15 150.07,19.2 C150.07,15.23 152.79,12.35 157,12.35 Z M26.61,7.42 L26.61,12.62 C26.21,12.55 25.74,12.47 25.12,12.47 C23.08,12.47 21.7,13.56 21.34,15.27 C21.27,15.63 21.23,16.07 21.23,16.51 L21.23,25.53 L15.7,25.53 L15.7,13.6 L15.71,13.6 C15.71,10.98 15.64,9.27 15.56,7.75 L20.32,7.75 L20.5,11.02 L20.65,11.02 C21.56,8.44 23.74,7.35 25.45,7.35 C25.96,7.35 26.21,7.35 26.61,7.42 Z M171.99,12.62 L171.96,14.09 L166.2,21.58 C165.67,22.3 165.13,22.94 164.55,23.61 L164.55,23.66 L172.1,23.66 L172.1,25.53 L161.62,25.53 L161.62,24.16 L167.46,16.56 C168.02,15.87 168.55,15.25 169.14,14.56 L169.14,14.51 L162.15,14.51 L162.15,12.62 L171.99,12.62 Z M51.81,7.75 L54.21,16 C54.65,17.49 54.97,18.91 55.23,20.33 L55.34,20.33 C55.63,18.88 55.92,17.53 56.32,16 L58.61,7.75 L64.43,7.75 L57.81,25.53 L52.28,25.53 L45.81,7.75 L51.81,7.75 Z M76.38,7.35 C80.02,7.35 82.74,9.75 82.74,14.98 L82.74,25.52 L77.21,25.52 L77.21,15.67 C77.21,13.38 76.41,11.82 74.41,11.82 C72.88,11.82 71.97,12.87 71.61,13.89 C71.46,14.22 71.39,14.76 71.39,15.27 L71.39,25.52 L65.86,25.52 L65.86,13.42 L65.88,13.42 C65.88,11.2 65.81,9.31 65.73,7.75 L70.53,7.75 L70.78,10.19 L70.89,10.19 C71.62,9.06 73.43,7.35 76.38,7.35 Z M36.47,11.2799726 C33.81,11.27 32.83,14 32.83,16.62 C32.83,19.67 34.1,21.96 36.47,21.96 C38.61,21.96 40,19.81 40,16.62 C40,13.97 38.98,11.2799726 36.47,11.2799726 Z M132.39,12.25 C131.123667,12.25 130.707678,15.5579333 130.681352,16.5372311 L130.68,16.63 L130.68,16.64 C130.68,17.44 131.08,21.02 132.39,21.02 C133.71,20.23 135.82,18.99 136.97,18.09 C137.332143,17.8021429 138.134031,17.290102 138.246738,16.7620481 L138.26,16.64 L138.26,16.63 C138.26,16.06 137.36,15.49 136.97,15.18 C135.82,14.28 133.71,13.04 132.39,12.25 Z M93.72,11.02 C91.39,11.02 90.45,13.13 90.3,14.62 L96.85,14.62 C96.85,13.28 96.27,11.02 93.72,11.02 Z M107.68,7.10542736e-15 C109.47,7.10542736e-15 110.56,1.2 110.59,2.8 C110.59,4.33 109.46,5.56 107.61,5.56 C105.87,5.56 104.74,4.32 104.74,2.8 C104.74,1.2 105.87,7.10542736e-15 107.68,7.10542736e-15 Z" id="Combined-Shape"></path>
        </g>
    </g>
</svg>